<svg id="Layer_1" data-name="Layer 1" xmlns="http://www.w3.org/2000/svg" viewBox="0 0 2075.21 482.73">
  <title>arrow-target-path</title>
  <g id="target_and_arrow" data-name="target and arrow">
    <g id="target">
      <path d="M239.28,24a218,218,0,0,1,84.8,418.7,218.11,218.11,0,0,1-285.6-116A217.82,217.82,0,0,1,239.28,24m0-20c-131.4,0-238,106.6-238,238s106.6,238,238,238,238-106.6,238-238S370.68,4,239.28,4Z" fill="#539eb7"/>
      <path d="M239.28,73a169,169,0,1,1-119.5,49.5A168,168,0,0,1,239.28,73m0-20a189,189,0,1,0,189,189,189,189,0,0,0-189-189Z" fill="#539eb7"/>
      <path d="M237.28,121a120.86,120.86,0,1,1-85.6,35.4,120.6,120.6,0,0,1,85.6-35.4m0-20a141,141,0,1,0,141,141,141,141,0,0,0-141-141Z" fill="#539eb7"/>
      <path d="M237.28,168a74,74,0,1,1-74,74,74.09,74.09,0,0,1,74-74m0-20a94,94,0,1,0,94,94,94,94,0,0,0-94-94Z" fill="#539eb7"/>
      <path d="M237.28,214a28,28,0,1,1-28,28,28.08,28.08,0,0,1,28-28m0-20a48,48,0,1,0,48,48,48,48,0,0,0-48-48Z" fill="#539eb7"/>
    </g>
   
    <path id="arrow-path" d="M237.18,241.56s163.18-69.66,542.21-104c464.09-42,889.18,73.83,889.18,73.83" fill="none"/>
  </g>
</svg>
