<?xml version="1.0" encoding="utf-8"?>
<!-- Generator: Adobe Illustrator 21.0.0, SVG Export Plug-In . SVG Version: 6.00 Build 0)  -->
<svg version="1.1" xmlns="http://www.w3.org/2000/svg" xmlns:xlink="http://www.w3.org/1999/xlink" x="0px" y="0px"
	 viewBox="0 0 658 606" style="enable-background:new 0 0 658 606;" xml:space="preserve">
<style type="text/css">
	.st0{fill:#12566d;}
	.st1{fill:none;stroke:#6156E1;stroke-width:10;stroke-linecap:round;stroke-linejoin:round;stroke-miterlimit:10;}
	.st2{fill:none;stroke:#000000;stroke-width:20;stroke-linecap:round;stroke-linejoin:round;stroke-miterlimit:10;}
	.st3{display:none;}
	.st4{display:inline;}
	.st5{display:none;fill:#A9C1C1;}
	.st6{fill:#12566d;}
	.st7{fill:#FFADF7;}
	.st8{fill:#D3C8FF;}
	.st9{fill:#6156E1;}
	.st10{fill:#FFFFFF;}
	.st11{fill:none;stroke:#12566d;stroke-width:8;stroke-miterlimit:10;}
	.st12{fill:#6156E1;stroke:#12566d;stroke-width:8;stroke-miterlimit:10;}
	.st13{fill:#12566d;}
	.st14{fill:#FFADF7;stroke:#12566d;stroke-width:8;stroke-miterlimit:10;}
	.st15{fill:#D3C8FF;stroke:#12566d;stroke-width:8;stroke-miterlimit:10;}
	.st16{fill:#12566d;}
	.st17{font-family:'Quicksand';}
	.st18{font-size:70.8273px;}
	.st19{letter-spacing:5px;}
	.st20{fill:#BFBFBF;}
	.st21{font-family:'Mulish';}
	.st22{font-size:34.4728px;}
	.st23{letter-spacing:5;}
	.st24{fill:#539EB7;stroke:#12566d;stroke-width:8;stroke-miterlimit:10;}
</style>
<g id="molekyl">
	<g>
		<ellipse class="st11" cx="331" cy="309.5" rx="118" ry="251.5"/>
	</g>
	<g>
		<ellipse transform="matrix(0.5348 -0.845 0.845 0.5348 -108.0044 422.8242)" class="st11" cx="330" cy="309.5" rx="118" ry="251.5"/>
		
	</g>
	<g>
			
		<ellipse transform="matrix(0.8376 -0.5462 0.5462 0.8376 -111.553 229.0378)" class="st11" cx="329.5" cy="302.2" rx="260.2" ry="122.1"/>
		
	</g>
	</g>
	<g id="logo">
		<text transform="matrix(1 0 0 1 229.9092 318.478)" class="st16 st17 st18 st19">Haku</text>
		<text transform="matrix(1 0 0 1 236.2363 356.6367)" class="st20 st21 st22 st23">Site search</text>
	</g>
	<ellipse id="atom-1" class="st12" cx="113" cy="181" rx="22" ry="22"/>
	<ellipse id="atom-2" class="st24" cx="546" cy="436" rx="22" ry="22"/>
	<ellipse id="atom-3" class="st14" cx="113" cy="436" rx="22" ry="22"/>
	<ellipse id="atom-4" class="st15" cx="546" cy="163" rx="22" ry="22"/>
	<path id="track-1"
        fill="none"
        d="M 393.11,209.78
           C 510.48,284.07 577.38,388.93 542.52,444.00
             507.67,499.07 384.27,483.49 266.90,409.20
             149.53,334.92 82.64,230.06 117.49,174.99
             152.34,119.92 275.74,135.50 393.11,209.78 Z" />
	<path id="track-2"
        fill="none"
        d="M 547.44,160.07
           C 584.27,216.55 516.56,325.97 396.19,404.46
             275.82,482.95 148.39,500.79 111.55,444.31
             74.72,387.83 142.44,278.41 262.81,199.92
             383.17,121.43 510.61,103.58 547.44,160.07 Z" />
</svg>
