<?xml version="1.0" encoding="utf-8"?>
<!-- Generator: Adobe Illustrator 21.0.0, SVG Export Plug-In . SVG Version: 6.00 Build 0)  -->
<svg version="1.1" xmlns="http://www.w3.org/2000/svg" xmlns:xlink="http://www.w3.org/1999/xlink" x="0px" y="0px"
	 viewBox="0 0 658 606" style="enable-background:new 0 0 658 606;" xml:space="preserve">
<style type="text/css">
	.st0{fill:#539EB7;}
	.st1{fill:none;stroke:#6156E1;stroke-width:10;stroke-linecap:round;stroke-linejoin:round;stroke-miterlimit:10;}
	.st2{fill:none;stroke:#000000;stroke-width:20;stroke-linecap:round;stroke-linejoin:round;stroke-miterlimit:10;}
	.st3{display:none;}
	.st4{display:inline;}
	.st5{display:none;fill:#A9C1C1;}
	.st6{fill:#12566D;}
	.st7{fill:#FFADF7;}
	.st8{fill:#D3C8FF;}
	.st9{fill:#6156E1;}
	.st10{fill:#FFFFFF;}
	.st11{fill:none;stroke:#12566D;stroke-width:8;stroke-miterlimit:10;}
	.st12{fill:#6156E1;stroke:#13576E;stroke-width:8;stroke-miterlimit:10;}
	.st13{fill:#14576F;}
	.st14{fill:#FFADF7;stroke:#14576F;stroke-width:8;stroke-miterlimit:10;}
	.st15{fill:#D3C8FF;stroke:#12566D;stroke-width:8;stroke-miterlimit:10;}
	.st16{fill:#324C5A;}
	.st17{font-family:'Quicksand';}
	.st18{font-size:70.8273px;}
	.st19{letter-spacing:5px;}
	.st20{fill:#BFBFBF;}
	.st21{font-family:'Mulish';}
	.st22{font-size:34.4728px;}
	.st23{letter-spacing:5;}
</style>
<g id="molekyl">
	<g>
		<ellipse class="st11" cx="331" cy="309.5" rx="118" ry="251.5"/>
	</g>
	<g>
		
		<ellipse id="track-1" transform="matrix(0.5348 -0.845 0.845 0.5348 -108.0044 422.8242)" class="st11" cx="330" cy="309.5" rx="118" ry="251.5"/>
		<ellipse id="atom-1" class="st12" cx="113" cy="181" rx="31" ry="30"/>
		<g id="atom-2">
			<path class="st0" d="M538,468c-16,0-29-12.6-29-28s13-28,29-28s29,12.6,29,28S554,468,538,468z"/>
			<g>
				<path class="st13" d="M538,414c14.9,0,27,11.7,27,26s-12.1,26-27,26s-27-11.7-27-26S523.1,414,538,414 M538,410
					c-17.1,0-31,13.4-31,30s13.9,30,31,30s31-13.4,31-30S555.1,410,538,410L538,410z"/>
			</g>
		</g>
	</g>
	<g>
		
		<ellipse id="track-2"transform="matrix(0.8376 -0.5462 0.5462 0.8376 -111.553 229.0378)" class="st11" cx="329.5" cy="302.2" rx="260.2" ry="122.1"/>
		<ellipse id="atom-3"class="st14" cx="113" cy="436" rx="31" ry="30"/>
		<ellipse id="atom-4"class="st15" cx="546" cy="163" rx="31" ry="30"/>
	</g>
</g>
<g id="logo">
	<text transform="matrix(1 0 0 1 229.9092 318.478)" class="st16 st17 st18 st19">Haku</text>
	<text transform="matrix(1 0 0 1 236.2363 356.6367)" class="st20 st21 st22 st23">Site search</text>
</g>
</svg>
