<svg id="Layer_2" data-name="Layer 2" xmlns="http://www.w3.org/2000/svg" viewBox="0 0 638 376.26">
  <title>stats</title>
  <g id="stats">
    <rect y="122.26" width="94" height="186" fill="#12566d"/>
    <rect x="132" y="189" width="94" height="120.27" fill="#b5cece"/>
    <rect x="411" y="254.11" width="94" height="56.16" fill="#12566d"/>
    <rect x="544" y="87.26" width="94" height="223" fill="#b5cece"/>
    <g>
      <path d="M59.85,24.09a13.09,13.09,0,0,1-4.2-.62,10.19,10.19,0,0,1-3.25-1.79l.73-1.43a13.14,13.14,0,0,0,2,1.29,8.06,8.06,0,0,0,2.11.74,12.89,12.89,0,0,0,2.6.24,6.32,6.32,0,0,0,3.92-1,3.25,3.25,0,0,0,1.32-2.7,2.75,2.75,0,0,0-.91-2.23A7.26,7.26,0,0,0,61,15.36l-2.86-.59a8.36,8.36,0,0,1-4-1.79,4.35,4.35,0,0,1-1.33-3.36,5.16,5.16,0,0,1,.9-3,5.78,5.78,0,0,1,2.49-2,9.13,9.13,0,0,1,3.7-.7,11.06,11.06,0,0,1,3.82.63,8,8,0,0,1,3,1.86l-.7,1.4A8.39,8.39,0,0,0,63.12,6a9.37,9.37,0,0,0-3.3-.55A6.15,6.15,0,0,0,56,6.58a3.58,3.58,0,0,0-1.43,3,3,3,0,0,0,.91,2.35,6.2,6.2,0,0,0,3,1.26l2.88.59a9.56,9.56,0,0,1,4.23,1.72,4,4,0,0,1,1.34,3.23A4.78,4.78,0,0,1,66,21.53a5.53,5.53,0,0,1-2.42,1.89A9.41,9.41,0,0,1,59.85,24.09Z"/>
      <path d="M76.51,24.09a6.74,6.74,0,0,1-5.05-1.9,7.24,7.24,0,0,1-1.86-5.29A8.43,8.43,0,0,1,70.42,13a6.2,6.2,0,0,1,2.31-2.53,6.46,6.46,0,0,1,3.44-.91,5.9,5.9,0,0,1,3.16.8,5.25,5.25,0,0,1,2,2.27,8,8,0,0,1,.7,3.49v.78H70.82V15.69H81l-.48.36a5.81,5.81,0,0,0-1.09-3.74A3.92,3.92,0,0,0,76.14,11a4.37,4.37,0,0,0-3.58,1.58,6.43,6.43,0,0,0-1.29,4.19v.2a5.94,5.94,0,0,0,1.39,4.26,5.1,5.1,0,0,0,3.88,1.46,7.23,7.23,0,0,0,2.41-.39A6.26,6.26,0,0,0,81.1,20.9l.7,1.26a5.92,5.92,0,0,1-2.32,1.43A8.85,8.85,0,0,1,76.51,24.09Z"/>
      <path d="M90.23,24.09A3.63,3.63,0,0,1,87.36,23a5.07,5.07,0,0,1-1-3.44V11.21h-2.8V9.84h2.8V5.92l1.71-.56V9.84h4.14v1.37H88.07v8.06a4.47,4.47,0,0,0,.56,2.55,2,2,0,0,0,1.79.78,4,4,0,0,0,1-.11,4.49,4.49,0,0,0,.74-.25v1.51a4.38,4.38,0,0,1-.87.24A5.85,5.85,0,0,1,90.23,24.09Z"/>
      <path d="M99.5,24.09A3.63,3.63,0,0,1,96.63,23a5.07,5.07,0,0,1-1-3.44V11.21h-2.8V9.84h2.8V5.92l1.71-.56V9.84h4.14v1.37H97.34v8.06a4.47,4.47,0,0,0,.56,2.55,2,2,0,0,0,1.79.78,4,4,0,0,0,1-.11,4.49,4.49,0,0,0,.74-.25v1.51a4.38,4.38,0,0,1-.87.24A5.85,5.85,0,0,1,99.5,24.09Z"/>
      <path d="M104.11,6.4V4.27h2.3V6.4Zm.28,17.47v-14h1.71v14Z"/>
      <path d="M110.78,23.87V13q0-.76-.06-1.54t-.17-1.6h1.68l.25,3.22h-.34a5,5,0,0,1,2-2.58,5.7,5.7,0,0,1,3.19-.9,5,5,0,0,1,3.77,1.32A5.74,5.74,0,0,1,122.37,15v8.85h-1.71V15.16a4.61,4.61,0,0,0-.87-3.12,3.44,3.44,0,0,0-2.69-1,4.48,4.48,0,0,0-3.37,1.29,4.78,4.78,0,0,0-1.25,3.47v8Z"/>
      <path d="M133,30.11a11,11,0,0,1-3.29-.48A8.38,8.38,0,0,1,127,28.21l.62-1.32a10.4,10.4,0,0,0,1.72,1,7.91,7.91,0,0,0,1.72.56,9.72,9.72,0,0,0,1.93.18,4.27,4.27,0,0,0,3.22-1.13,4.52,4.52,0,0,0,1.09-3.26V19.81h.31a4.63,4.63,0,0,1-1.88,2.76,5.73,5.73,0,0,1-3.36,1,6.34,6.34,0,0,1-3.35-.85,5.65,5.65,0,0,1-2.18-2.44,8.38,8.38,0,0,1-.77-3.71,8.29,8.29,0,0,1,.77-3.7A5.67,5.67,0,0,1,129,10.44a6.35,6.35,0,0,1,3.35-.85,5.74,5.74,0,0,1,3.36,1,4.64,4.64,0,0,1,1.88,2.79l-.31-.31.25-3.22h1.68q-.11.81-.17,1.6T139,13V24a6.23,6.23,0,0,1-1.53,4.56A6,6,0,0,1,133,30.11Zm-.45-8A4.36,4.36,0,0,0,136,20.65a6,6,0,0,0,1.27-4.09A6,6,0,0,0,136,12.5a4.85,4.85,0,0,0-6.93,0,5.92,5.92,0,0,0-1.29,4.06,6,6,0,0,0,1.29,4.09A4.4,4.4,0,0,0,132.56,22.11Z"/>
      <path d="M155.69,24.09A4.94,4.94,0,0,1,152,22.76a5.74,5.74,0,0,1-1.27-4.1V9.84h1.71v8.71a4.61,4.61,0,0,0,.87,3.11,3.37,3.37,0,0,0,2.66,1,4.18,4.18,0,0,0,3.21-1.3,4.86,4.86,0,0,0,1.22-3.46v-8H162v14h-1.68v-3.3h.36a5.05,5.05,0,0,1-1.92,2.62A5.39,5.39,0,0,1,155.69,24.09Z"/>
      <path d="M166.69,29.92V13q0-.76-.06-1.54t-.17-1.6h1.68l.28,3.5h-.34a4.9,4.9,0,0,1,1.85-2.74,5.47,5.47,0,0,1,3.33-1A5.75,5.75,0,0,1,178.73,13a8.79,8.79,0,0,1,.78,3.88,9,9,0,0,1-.77,3.89,5.74,5.74,0,0,1-2.17,2.49,6.14,6.14,0,0,1-3.3.87,5.54,5.54,0,0,1-3.32-1,4.81,4.81,0,0,1-1.86-2.73h.31v9.55ZM173,22.64a4.33,4.33,0,0,0,3.44-1.48,6.4,6.4,0,0,0,1.29-4.31,6.4,6.4,0,0,0-1.29-4.31A4.33,4.33,0,0,0,173,11a4.26,4.26,0,0,0-3.4,1.48,6.44,6.44,0,0,0-1.27,4.31,6.44,6.44,0,0,0,1.27,4.31A4.26,4.26,0,0,0,173,22.64Z"/>
    </g>
    <g>
      <path d="M448.48,23.87V14.69L448.9,16l-8-11.87h2l6.78,10.22h-.5l6.78-10.22h1.93l-8,11.87.39-1.32v9.18Z"/>
      <path d="M463.9,24.09a6.74,6.74,0,0,1-5.05-1.9A7.25,7.25,0,0,1,457,16.9a8.43,8.43,0,0,1,.83-3.86,6.19,6.19,0,0,1,2.31-2.53,6.46,6.46,0,0,1,3.44-.91,5.9,5.9,0,0,1,3.16.8,5.26,5.26,0,0,1,2,2.27,8.05,8.05,0,0,1,.7,3.49v.78h-11.2V15.69h10.13l-.48.36a5.81,5.81,0,0,0-1.09-3.74A3.92,3.92,0,0,0,463.54,11,4.37,4.37,0,0,0,460,12.54a6.43,6.43,0,0,0-1.29,4.19v.2a5.94,5.94,0,0,0,1.39,4.26,5.1,5.1,0,0,0,3.88,1.46,7.22,7.22,0,0,0,2.41-.39,6.27,6.27,0,0,0,2.16-1.34l.7,1.26a5.92,5.92,0,0,1-2.32,1.43A8.85,8.85,0,0,1,463.9,24.09Z"/>
      <path d="M478.41,24.09a6.15,6.15,0,0,1-3.3-.87,5.64,5.64,0,0,1-2.16-2.49,9.16,9.16,0,0,1-.76-3.89A8.92,8.92,0,0,1,473,13a5.84,5.84,0,0,1,2.17-2.49,6,6,0,0,1,3.28-.88,5.61,5.61,0,0,1,3.35,1,4.7,4.7,0,0,1,1.86,2.74h-.34l.28-3.5h1.65q-.08.81-.15,1.6T485,13V23.87h-1.71v-3.5h.31a4.65,4.65,0,0,1-1.86,2.73A5.62,5.62,0,0,1,478.41,24.09Zm.22-1.46A4.25,4.25,0,0,0,482,21.15a6.49,6.49,0,0,0,1.26-4.31A6.49,6.49,0,0,0,482,12.53a4.69,4.69,0,0,0-6.85,0,6.44,6.44,0,0,0-1.27,4.31,6.44,6.44,0,0,0,1.27,4.31A4.29,4.29,0,0,0,478.63,22.64Z"/>
      <path d="M489.61,23.87V13.12q0-.81,0-1.64t-.15-1.64h1.68l.22,3.22-.34,0a4.16,4.16,0,0,1,1-1.95A4.81,4.81,0,0,1,493.67,10a5.1,5.1,0,0,1,2-.39,5.26,5.26,0,0,1,.69,0,3.81,3.81,0,0,1,.6.13l-.06,1.54a2.85,2.85,0,0,0-.67-.14c-.22,0-.47,0-.73,0a3.92,3.92,0,0,0-2.2.62,4.22,4.22,0,0,0-1.44,1.57,4.09,4.09,0,0,0-.5,1.93v8.62Z"/>
      <path d="M499.41,23.87V3.26h1.71V23.87Z"/>
      <path d="M505.15,30.23l-.42-1.48a10.09,10.09,0,0,0,2.18-.74,4.51,4.51,0,0,0,1.46-1.13,7,7,0,0,0,1-1.74l.73-1.68,0,.76L504,9.84h1.9l5.35,13h-.7l5.29-13h1.85l-6.5,15.37A10.17,10.17,0,0,1,510,27.36a7.41,7.41,0,0,1-1.36,1.43,6.17,6.17,0,0,1-1.6.91A11,11,0,0,1,505.15,30.23Z"/>
      <path d="M533.29,24.09a6.67,6.67,0,0,1-3.47-.88,5.8,5.8,0,0,1-2.28-2.53,8.93,8.93,0,0,1-.8-3.92,8.54,8.54,0,0,1,.81-3.88,5.7,5.7,0,0,1,2.28-2.45,7.26,7.26,0,0,1,6-.34,5.53,5.53,0,0,1,2.06,1.4l-.7,1.26a5.65,5.65,0,0,0-1.88-1.27,5.37,5.37,0,0,0-2-.41,4.53,4.53,0,0,0-3.58,1.46,6.23,6.23,0,0,0-1.29,4.26,6.52,6.52,0,0,0,1.29,4.33,4.43,4.43,0,0,0,3.58,1.53A5.51,5.51,0,0,0,537.24,21l.7,1.26a5.6,5.6,0,0,1-2.11,1.39A7,7,0,0,1,533.29,24.09Z"/>
      <path d="M546.64,24.09a6.53,6.53,0,0,1-3.43-.87A5.73,5.73,0,0,1,541,20.73a8.88,8.88,0,0,1-.78-3.89A8.81,8.81,0,0,1,541,13a5.83,5.83,0,0,1,2.23-2.51,7.06,7.06,0,0,1,6.83,0A5.91,5.91,0,0,1,552.29,13a8.68,8.68,0,0,1,.8,3.86,8.74,8.74,0,0,1-.8,3.89A5.82,5.82,0,0,1,550,23.23,6.47,6.47,0,0,1,546.64,24.09Zm0-1.46a4.3,4.3,0,0,0,3.42-1.48,6.4,6.4,0,0,0,1.29-4.31,6.4,6.4,0,0,0-1.29-4.31,4.69,4.69,0,0,0-6.85,0,6.44,6.44,0,0,0-1.27,4.31,6.44,6.44,0,0,0,1.27,4.31A4.29,4.29,0,0,0,546.64,22.64Z"/>
      <path d="M561.37,24.09a9.46,9.46,0,0,1-3-.48A6.51,6.51,0,0,1,556,22.3l.67-1.26a7.18,7.18,0,0,0,2.24,1.25,7.82,7.82,0,0,0,2.52.41,4.59,4.59,0,0,0,2.71-.67,2.13,2.13,0,0,0,.92-1.82,1.92,1.92,0,0,0-.59-1.46,4,4,0,0,0-2-.84L560,17.37A5.27,5.27,0,0,1,557.33,16a3.23,3.23,0,0,1-.88-2.32,3.69,3.69,0,0,1,.63-2.13,4.23,4.23,0,0,1,1.81-1.46,6.68,6.68,0,0,1,2.77-.53,7.71,7.71,0,0,1,2.79.49,5.35,5.35,0,0,1,2.09,1.39l-.73,1.23a5.59,5.59,0,0,0-1.89-1.26,5.94,5.94,0,0,0-2.23-.42,4.16,4.16,0,0,0-2.63.71,2.3,2.3,0,0,0-.9,1.89,2,2,0,0,0,.56,1.47,3.54,3.54,0,0,0,1.76.85l2.52.56a6,6,0,0,1,2.83,1.29,3,3,0,0,1,.92,2.3,3.5,3.5,0,0,1-.67,2.14,4.17,4.17,0,0,1-1.88,1.39A7.67,7.67,0,0,1,561.37,24.09Z"/>
      <path d="M575.06,24.09A3.63,3.63,0,0,1,572.19,23a5.07,5.07,0,0,1-1-3.44V11.21h-2.8V9.84h2.8V5.92l1.71-.56V9.84h4.14v1.37h-4.14v8.06a4.48,4.48,0,0,0,.56,2.55,2.05,2.05,0,0,0,1.79.78,4,4,0,0,0,1-.11,4.49,4.49,0,0,0,.74-.25v1.51a4.37,4.37,0,0,1-.87.24A5.85,5.85,0,0,1,575.06,24.09Z"/>
    </g>
    <g>
      <path d="M18.18,371.87V352.13H21.8v8.23H31.9v-8.23h3.61v19.74H31.9v-8.51H21.8v8.51Z"/>
      <path d="M45,372.15a6,6,0,0,1-3.25-.88,5.88,5.88,0,0,1-2.18-2.53,10.29,10.29,0,0,1,0-7.88,5.9,5.9,0,0,1,2.18-2.52,6,6,0,0,1,3.25-.88,5.66,5.66,0,0,1,3.15.88A4.21,4.21,0,0,1,50,360.7h-.31l.31-3h3.36q-.08.87-.15,1.76t-.07,1.76v10.61H49.66l0-2.91H50a4.13,4.13,0,0,1-1.82,2.32A5.69,5.69,0,0,1,45,372.15Zm1-2.69a3.35,3.35,0,0,0,2.66-1.16,5.25,5.25,0,0,0,1-3.51,5.19,5.19,0,0,0-1-3.5,3.66,3.66,0,0,0-5.32,0,5.19,5.19,0,0,0-1,3.5,5.3,5.3,0,0,0,1,3.51A3.34,3.34,0,0,0,46,369.46Z"/>
      <path d="M56.94,371.87V351.26h3.5v12.49h.06l5.74-6h4.23l-7.14,7.48,0-1.4L71,371.87H66.62l-6.13-6.33h-.06v6.33Z"/>
      <path d="M77.49,372.15a5,5,0,0,1-3.89-1.43,6.36,6.36,0,0,1-1.29-4.37v-8.62h3.5v8.6a3.46,3.46,0,0,0,.64,2.31,2.45,2.45,0,0,0,2,.74,3.16,3.16,0,0,0,2.42-1,3.75,3.75,0,0,0,.94-2.66v-8h3.5v14.14H81.86V369h.39a5,5,0,0,1-1.86,2.34A5.13,5.13,0,0,1,77.49,372.15Z"/>
    </g>
    <g>
      <path d="M141.82,360a12.67,12.67,0,0,1,1.05-5.39,7.84,7.84,0,0,1,3-3.47,9.95,9.95,0,0,1,9.53,0,8,8,0,0,1,3.08,3.47,13.89,13.89,0,0,1,0,10.77,8.14,8.14,0,0,1-3.09,3.5,9.73,9.73,0,0,1-9.48,0,8,8,0,0,1-3.05-3.5A12.55,12.55,0,0,1,141.82,360Zm1.85,0a9.86,9.86,0,0,0,1.79,6.29,6.29,6.29,0,0,0,5.24,2.25,6.41,6.41,0,0,0,5.21-2.25,11.51,11.51,0,0,0,0-12.57,6.43,6.43,0,0,0-5.22-2.23,6.33,6.33,0,0,0-5.24,2.23A9.79,9.79,0,0,0,143.67,360Z"/>
      <path d="M168.28,370.09a3.63,3.63,0,0,1-2.87-1.12,5.07,5.07,0,0,1-1-3.44v-8.32h-2.8v-1.37h2.8v-3.92l1.71-.56v4.48h4.14v1.37h-4.14v8.06a4.48,4.48,0,0,0,.56,2.55,2,2,0,0,0,1.79.78,4,4,0,0,0,1-.11,4.49,4.49,0,0,0,.74-.25v1.51a4.41,4.41,0,0,1-.87.24A5.94,5.94,0,0,1,168.28,370.09Z"/>
      <path d="M173.18,369.87V349.26h1.71v9.83h-.34a4.85,4.85,0,0,1,2-2.6,5.89,5.89,0,0,1,3.25-.9,4.84,4.84,0,0,1,3.77,1.34,5.84,5.84,0,0,1,1.22,4v8.9h-1.71v-8.76a4.6,4.6,0,0,0-.84-3.08,3.41,3.41,0,0,0-2.69-1,4.54,4.54,0,0,0-3.37,1.29,4.65,4.65,0,0,0-1.27,3.42v8.09Z"/>
      <path d="M195.38,370.09a6.74,6.74,0,0,1-5.05-1.9,7.25,7.25,0,0,1-1.86-5.29,8.43,8.43,0,0,1,.83-3.86,6.19,6.19,0,0,1,2.31-2.53,6.45,6.45,0,0,1,3.44-.91,5.9,5.9,0,0,1,3.16.8,5.25,5.25,0,0,1,2,2.27,8,8,0,0,1,.7,3.49v.78H189.7v-1.23h10.14l-.48.36a5.8,5.8,0,0,0-1.09-3.74A3.92,3.92,0,0,0,195,357a4.37,4.37,0,0,0-3.58,1.58,6.43,6.43,0,0,0-1.29,4.19v.2a5.94,5.94,0,0,0,1.39,4.26,5.1,5.1,0,0,0,3.88,1.46,7.23,7.23,0,0,0,2.41-.39A6.27,6.27,0,0,0,200,366.9l.7,1.26a5.92,5.92,0,0,1-2.32,1.43A8.85,8.85,0,0,1,195.38,370.09Z"/>
      <path d="M204.54,369.87V359.12q0-.81,0-1.64t-.15-1.64H206l.22,3.22-.34,0a4.18,4.18,0,0,1,1-1.95A4.83,4.83,0,0,1,208.6,356a5.11,5.11,0,0,1,2-.39,5.26,5.26,0,0,1,.69,0,3.79,3.79,0,0,1,.6.13l-.06,1.54a2.79,2.79,0,0,0-.67-.14q-.34,0-.73,0a3.92,3.92,0,0,0-2.2.62,4.22,4.22,0,0,0-1.44,1.57,4.09,4.09,0,0,0-.5,1.93v8.62Z"/>
      <path d="M218.74,370.09a9.43,9.43,0,0,1-3-.48,6.51,6.51,0,0,1-2.34-1.32L214,367a7.15,7.15,0,0,0,2.24,1.25,7.81,7.81,0,0,0,2.52.41,4.59,4.59,0,0,0,2.72-.67,2.13,2.13,0,0,0,.92-1.82,1.92,1.92,0,0,0-.59-1.46,4,4,0,0,0-2-.84l-2.52-.53a5.26,5.26,0,0,1-2.67-1.34,3.23,3.23,0,0,1-.88-2.32,3.68,3.68,0,0,1,.63-2.13,4.23,4.23,0,0,1,1.81-1.46,6.69,6.69,0,0,1,2.77-.53,7.71,7.71,0,0,1,2.79.49,5.36,5.36,0,0,1,2.09,1.39l-.73,1.23a5.6,5.6,0,0,0-1.89-1.26A6,6,0,0,0,219,357a4.15,4.15,0,0,0-2.63.71,2.3,2.3,0,0,0-.9,1.89,2,2,0,0,0,.56,1.47,3.53,3.53,0,0,0,1.76.85l2.52.56a6,6,0,0,1,2.83,1.29,3,3,0,0,1,.92,2.3,3.5,3.5,0,0,1-.67,2.14,4.16,4.16,0,0,1-1.88,1.39A7.65,7.65,0,0,1,218.74,370.09Z"/>
    </g>
    <g>
      <path d="M429.18,371.87V352.13h3.61v8.23H442.9v-8.23h3.61v19.74H442.9v-8.51H432.8v8.51Z"/>
      <path d="M456,372.15a6,6,0,0,1-3.25-.88,5.89,5.89,0,0,1-2.18-2.53,10.31,10.31,0,0,1,0-7.88,5.75,5.75,0,0,1,5.43-3.4,5.65,5.65,0,0,1,3.15.88A4.21,4.21,0,0,1,461,360.7h-.31l.31-3h3.36q-.08.87-.15,1.76t-.07,1.76v10.61h-3.47l0-2.91H461a4.13,4.13,0,0,1-1.82,2.32A5.69,5.69,0,0,1,456,372.15Zm1-2.69a3.35,3.35,0,0,0,2.66-1.16,5.25,5.25,0,0,0,1-3.51,5.19,5.19,0,0,0-1-3.5,3.66,3.66,0,0,0-5.32,0,5.19,5.19,0,0,0-1,3.5,5.3,5.3,0,0,0,1,3.51A3.34,3.34,0,0,0,457,369.46Z"/>
      <path d="M467.94,371.87V351.26h3.5v12.49h.06l5.74-6h4.23l-7.14,7.48,0-1.4,7.62,8.06h-4.34l-6.13-6.33h-.06v6.33Z"/>
      <path d="M488.49,372.15a5,5,0,0,1-3.89-1.43,6.36,6.36,0,0,1-1.29-4.37v-8.62h3.5v8.6a3.46,3.46,0,0,0,.64,2.31,2.45,2.45,0,0,0,2,.74,3.16,3.16,0,0,0,2.42-1,3.75,3.75,0,0,0,.94-2.66v-8h3.5v14.14h-3.42V369h.39a5,5,0,0,1-1.86,2.34A5.13,5.13,0,0,1,488.49,372.15Z"/>
    </g>
    <g>
      <path d="M552.82,360a12.67,12.67,0,0,1,1-5.39,7.84,7.84,0,0,1,3-3.47,9.94,9.94,0,0,1,9.53,0,8,8,0,0,1,3.08,3.47,13.9,13.9,0,0,1,0,10.77,8.15,8.15,0,0,1-3.09,3.5,9.73,9.73,0,0,1-9.48,0,8,8,0,0,1-3.05-3.5A12.54,12.54,0,0,1,552.82,360Zm1.85,0a9.86,9.86,0,0,0,1.79,6.29,6.29,6.29,0,0,0,5.24,2.25,6.41,6.41,0,0,0,5.21-2.25,11.51,11.51,0,0,0,0-12.57,6.44,6.44,0,0,0-5.22-2.23,6.33,6.33,0,0,0-5.24,2.23A9.79,9.79,0,0,0,554.67,360Z"/>
      <path d="M579.28,370.09a3.63,3.63,0,0,1-2.87-1.12,5.07,5.07,0,0,1-1-3.44v-8.32h-2.8v-1.37h2.8v-3.92l1.71-.56v4.48h4.14v1.37h-4.14v8.06a4.49,4.49,0,0,0,.56,2.55,2.05,2.05,0,0,0,1.79.78,4,4,0,0,0,1-.11,4.49,4.49,0,0,0,.74-.25v1.51a4.4,4.4,0,0,1-.87.24A5.94,5.94,0,0,1,579.28,370.09Z"/>
      <path d="M584.18,369.87V349.26h1.71v9.83h-.34a4.86,4.86,0,0,1,2-2.6,5.89,5.89,0,0,1,3.25-.9,4.84,4.84,0,0,1,3.77,1.34,5.84,5.84,0,0,1,1.22,4v8.9h-1.71v-8.76a4.61,4.61,0,0,0-.84-3.08,3.41,3.41,0,0,0-2.69-1,4.53,4.53,0,0,0-3.37,1.29,4.65,4.65,0,0,0-1.27,3.42v8.09Z"/>
      <path d="M606.38,370.09a6.74,6.74,0,0,1-5.05-1.9,7.25,7.25,0,0,1-1.86-5.29,8.43,8.43,0,0,1,.83-3.86,6.19,6.19,0,0,1,2.31-2.53,6.44,6.44,0,0,1,3.44-.91,5.9,5.9,0,0,1,3.16.8,5.25,5.25,0,0,1,2,2.27,8,8,0,0,1,.7,3.49v.78H600.7v-1.23h10.14l-.48.36a5.81,5.81,0,0,0-1.09-3.74A3.92,3.92,0,0,0,606,357a4.37,4.37,0,0,0-3.58,1.58,6.43,6.43,0,0,0-1.29,4.19v.2a6,6,0,0,0,1.39,4.26,5.1,5.1,0,0,0,3.88,1.46,7.22,7.22,0,0,0,2.41-.39A6.26,6.26,0,0,0,611,366.9l.7,1.26a5.93,5.93,0,0,1-2.32,1.43A8.86,8.86,0,0,1,606.38,370.09Z"/>
      <path d="M615.54,369.87V359.12q0-.81,0-1.64t-.15-1.64H617l.22,3.22-.34,0a4.18,4.18,0,0,1,1-1.95A4.83,4.83,0,0,1,619.6,356a5.1,5.1,0,0,1,2-.39,5.26,5.26,0,0,1,.69,0,3.82,3.82,0,0,1,.6.13l-.06,1.54a2.78,2.78,0,0,0-.67-.14c-.22,0-.47,0-.73,0a3.91,3.91,0,0,0-2.2.62,4.22,4.22,0,0,0-1.44,1.57,4.09,4.09,0,0,0-.5,1.93v8.62Z"/>
      <path d="M629.74,370.09a9.43,9.43,0,0,1-3-.48,6.51,6.51,0,0,1-2.34-1.32L625,367a7.15,7.15,0,0,0,2.24,1.25,7.81,7.81,0,0,0,2.52.41,4.59,4.59,0,0,0,2.72-.67,2.14,2.14,0,0,0,.92-1.82,1.92,1.92,0,0,0-.59-1.46,4,4,0,0,0-2-.84l-2.52-.53a5.26,5.26,0,0,1-2.67-1.34,3.23,3.23,0,0,1-.88-2.32,3.68,3.68,0,0,1,.63-2.13,4.22,4.22,0,0,1,1.81-1.46,6.69,6.69,0,0,1,2.77-.53,7.71,7.71,0,0,1,2.79.49,5.36,5.36,0,0,1,2.09,1.39l-.73,1.23a5.61,5.61,0,0,0-1.89-1.26A6,6,0,0,0,630,357a4.15,4.15,0,0,0-2.63.71,2.3,2.3,0,0,0-.9,1.89,2,2,0,0,0,.56,1.47,3.53,3.53,0,0,0,1.76.85l2.52.56a6,6,0,0,1,2.83,1.29,3,3,0,0,1,.92,2.3,3.5,3.5,0,0,1-.67,2.14,4.16,4.16,0,0,1-1.88,1.39A7.65,7.65,0,0,1,629.74,370.09Z"/>
    </g>
  </g>
</svg>
