<svg xmlns="http://www.w3.org/2000/svg" viewBox="0 0 433 1366">
  <title>steps-mobile</title>
  <g id="Слой_1" data-name="Слой 1">
    <path d="M16.5,31c157.21,46.62,254.39,223.32,210,507.92C210.64,640.92-19,758,64.14,971.32c56.05,143.81,182.31,335.21,173.08,407.48" fill="none" stroke="#dae7eb" stroke-miterlimit="10" stroke-width="14" stroke-dasharray="24.16 24.16"/>
    <rect x="116" y="424" width="210" height="77" fill="#f4f8f8"/>
    <g>
      <path d="M117.79,263.15V242h8.64a7.67,7.67,0,0,1,5.16,1.58,5.49,5.49,0,0,1,1.83,4.4,5.81,5.81,0,0,1-.83,3.17,5.3,5.3,0,0,1-2.31,2,8.15,8.15,0,0,1-3.46.69l.54-.39h.6a4.13,4.13,0,0,1,2.21.6,4,4,0,0,1,1.54,2l3,7.11H132l-2.88-7a2.81,2.81,0,0,0-1.53-1.75A7,7,0,0,0,125,254h-4.74v9.15Zm2.49-11.1h5.79a5.58,5.58,0,0,0,3.65-1,3.66,3.66,0,0,0,1.25-3,3.62,3.62,0,0,0-1.25-3,5.64,5.64,0,0,0-3.65-1h-5.79Z"/>
      <path d="M144.13,263.42a7.28,7.28,0,0,1-3.76-.94,6.29,6.29,0,0,1-2.48-2.7,10.39,10.39,0,0,1,0-8.33,6.31,6.31,0,0,1,2.48-2.68,8,8,0,0,1,7.56,0,6.42,6.42,0,0,1,2.49,2.68,10.23,10.23,0,0,1,0,8.33,6.39,6.39,0,0,1-2.49,2.7A7.35,7.35,0,0,1,144.13,263.42Zm0-2a4.25,4.25,0,0,0,3.42-1.49,8.1,8.1,0,0,0,0-8.7,4.26,4.26,0,0,0-3.41-1.49,4.22,4.22,0,0,0-3.39,1.49,8.14,8.14,0,0,0,0,8.7A4.22,4.22,0,0,0,144.13,261.44Z"/>
      <path d="M162.64,263.42a5.94,5.94,0,0,1-3.51-1,5,5,0,0,1-2-2.83h.33v3.6h-2.4V241.07h2.43V251.6h-.36a5,5,0,0,1,2-2.76,6,6,0,0,1,3.51-1,6.43,6.43,0,0,1,3.52.95,6.29,6.29,0,0,1,2.31,2.68,9.66,9.66,0,0,1,.82,4.17,9.52,9.52,0,0,1-.84,4.17,6.13,6.13,0,0,1-5.82,3.63Zm-.51-2a4.33,4.33,0,0,0,3.42-1.47,8,8,0,0,0,0-8.71,4.31,4.31,0,0,0-3.42-1.49,4.26,4.26,0,0,0-3.4,1.49,8.06,8.06,0,0,0,0,8.7A4.26,4.26,0,0,0,162.13,261.44Z"/>
      <path d="M179.26,263.42a7.28,7.28,0,0,1-3.76-.94,6.29,6.29,0,0,1-2.48-2.7,10.39,10.39,0,0,1,0-8.33,6.31,6.31,0,0,1,2.48-2.68,8,8,0,0,1,7.56,0,6.42,6.42,0,0,1,2.49,2.68,10.23,10.23,0,0,1,0,8.33,6.39,6.39,0,0,1-2.49,2.7A7.35,7.35,0,0,1,179.26,263.42Zm0-2a4.25,4.25,0,0,0,3.42-1.49,8.1,8.1,0,0,0,0-8.7,4.26,4.26,0,0,0-3.41-1.49,4.22,4.22,0,0,0-3.39,1.49,8.14,8.14,0,0,0,0,8.7A4.22,4.22,0,0,0,179.26,261.44Z"/>
      <path d="M195.4,263.42a4.37,4.37,0,0,1-3.39-1.27,5.54,5.54,0,0,1-1.17-3.86V250H187.9v-1.89h2.94V244l2.43-.69v4.8h4.32V250h-4.32v8a4.14,4.14,0,0,0,.61,2.56,2.22,2.22,0,0,0,1.85.77,4.49,4.49,0,0,0,1-.11,5,5,0,0,0,.81-.25v2a4.67,4.67,0,0,1-1,.29A6.6,6.6,0,0,1,195.4,263.42Z"/>
      <path d="M205.57,263.42a11,11,0,0,1-3.36-.49,7.07,7.07,0,0,1-2.58-1.4l.84-1.71a7.73,7.73,0,0,0,2.42,1.29,8.8,8.8,0,0,0,2.72.42,4.71,4.71,0,0,0,2.71-.64,2.07,2.07,0,0,0,.92-1.79,1.78,1.78,0,0,0-.58-1.4,4.3,4.3,0,0,0-1.91-.82l-2.79-.57a5.51,5.51,0,0,1-2.88-1.42,3.56,3.56,0,0,1-1-2.57,4,4,0,0,1,.69-2.33,4.64,4.64,0,0,1,2-1.59,7.58,7.58,0,0,1,3.09-.58,9,9,0,0,1,3,.5,6.14,6.14,0,0,1,2.33,1.42l-.87,1.68a6,6,0,0,0-2.06-1.3,6.73,6.73,0,0,0-2.38-.43,4.21,4.21,0,0,0-2.65.71,2.25,2.25,0,0,0-.89,1.84,1.93,1.93,0,0,0,.56,1.42,3.52,3.52,0,0,0,1.72.83l2.79.57a6.41,6.41,0,0,1,3,1.39,3.32,3.32,0,0,1,1,2.54,3.83,3.83,0,0,1-.75,2.35,4.75,4.75,0,0,1-2.08,1.55A8.34,8.34,0,0,1,205.57,263.42Z"/>
      <path d="M229.6,263.42a7.47,7.47,0,0,1-3.85-1,6.4,6.4,0,0,1-2.52-2.73,9.29,9.29,0,0,1-.89-4.2,9,9,0,0,1,.9-4.18,6.17,6.17,0,0,1,2.54-2.62,7.8,7.8,0,0,1,3.83-.9,8,8,0,0,1,2.8.51,6,6,0,0,1,2.27,1.44l-.87,1.74a6,6,0,0,0-2-1.29,5.66,5.66,0,0,0-2.08-.42,4.57,4.57,0,0,0-3.63,1.47,6.32,6.32,0,0,0-1.29,4.29,6.51,6.51,0,0,0,1.29,4.32,4.49,4.49,0,0,0,3.63,1.53,6,6,0,0,0,2.05-.39,5.69,5.69,0,0,0,2-1.29l.87,1.71a6.1,6.1,0,0,1-2.31,1.47A7.92,7.92,0,0,1,229.6,263.42Z"/>
      <path d="M238.05,263.15V251.72q0-.9,0-1.83t-.14-1.8h2.34l.3,3.66-.42,0a5,5,0,0,1,1-2.22,4.8,4.8,0,0,1,1.77-1.3,5.37,5.37,0,0,1,2.13-.44c.3,0,.56,0,.8,0a2.27,2.27,0,0,1,.65.15l0,2.16a4.2,4.2,0,0,0-.83-.19,7.17,7.17,0,0,0-.85,0,4.14,4.14,0,0,0-2.29.63,4.08,4.08,0,0,0-1.47,1.62,4.63,4.63,0,0,0-.5,2.1v8.88Z"/>
      <path d="M254.58,263.42a6.45,6.45,0,0,1-3.51-.94,6.24,6.24,0,0,1-2.32-2.69,11,11,0,0,1,0-8.37,6.15,6.15,0,0,1,2.32-2.67,6.53,6.53,0,0,1,3.51-.93,6,6,0,0,1,3.52,1,4.86,4.86,0,0,1,2,2.8h-.36l.33-3.57h2.34q-.09.87-.17,1.75t-.07,1.72v11.58h-2.43v-3.54H260a4.78,4.78,0,0,1-2,2.79A6,6,0,0,1,254.58,263.42Zm.48-2a4.25,4.25,0,0,0,3.42-1.49,8.14,8.14,0,0,0,0-8.7,4.66,4.66,0,0,0-6.83,0,8.06,8.06,0,0,0,0,8.7A4.26,4.26,0,0,0,255.06,261.44Z"/>
      <path d="M270.73,263.15l-5.58-15.06h2.58l4.65,13.26h-.78l4.8-13.26h2.1l4.71,13.26h-.75l4.68-13.26h2.46L284,263.15h-2.34l-4.86-13.47H278l-4.89,13.47Z"/>
      <path d="M292.77,263.15V241.07h2.43v22.08Z"/>
      <path d="M137.42,299.42a4.37,4.37,0,0,1-3.39-1.27,5.54,5.54,0,0,1-1.17-3.86V286h-2.94v-1.89h2.94V280l2.43-.69v4.8h4.32V286h-4.32v8a4.14,4.14,0,0,0,.61,2.56,2.22,2.22,0,0,0,1.85.77,4.49,4.49,0,0,0,1-.11,5,5,0,0,0,.81-.25v2a4.67,4.67,0,0,1-1,.29A6.6,6.6,0,0,1,137.42,299.42Z"/>
      <path d="M142.58,299.15V277.07H145v10.35h-.39a5,5,0,0,1,2.11-2.68,6.42,6.42,0,0,1,3.44-.92,5.16,5.16,0,0,1,4,1.46,6.36,6.36,0,0,1,1.32,4.39v9.48h-2.43v-9.33a4.65,4.65,0,0,0-.83-3.06,3.32,3.32,0,0,0-2.65-1,4.43,4.43,0,0,0-3.35,1.29,4.67,4.67,0,0,0-1.25,3.39v8.67Z"/>
      <path d="M166.85,299.42a7.51,7.51,0,0,1-5.58-2.05,7.75,7.75,0,0,1-2-5.71,8.93,8.93,0,0,1,.9-4.12,6.66,6.66,0,0,1,2.52-2.73,7.08,7.08,0,0,1,3.72-1,6.51,6.51,0,0,1,3.48.87,5.63,5.63,0,0,1,2.16,2.47,8.9,8.9,0,0,1,.75,3.79v.9H161.09v-1.53h10.08l-.51.39a5.85,5.85,0,0,0-1.08-3.75,3.86,3.86,0,0,0-3.21-1.35,4.24,4.24,0,0,0-3.51,1.58,6.61,6.61,0,0,0-1.26,4.25v.27A6,6,0,0,0,163,296a5.16,5.16,0,0,0,3.92,1.46,7.77,7.77,0,0,0,2.53-.41,6.88,6.88,0,0,0,2.27-1.33l.84,1.71a6.66,6.66,0,0,1-2.5,1.49A9.7,9.7,0,0,1,166.85,299.42Z"/>
      <path d="M188.33,299.15l-5.58-15.06h2.58L190,297.35h-.78l4.8-13.26h2.1l4.71,13.26h-.75l4.68-13.26h2.46l-5.61,15.06h-2.34l-4.86-13.47h1.2l-4.89,13.47Z"/>
      <path d="M216.86,299.42a7.51,7.51,0,0,1-5.58-2.05,7.75,7.75,0,0,1-2-5.71,8.93,8.93,0,0,1,.9-4.12,6.66,6.66,0,0,1,2.52-2.73,7.08,7.08,0,0,1,3.72-1,6.51,6.51,0,0,1,3.48.87,5.63,5.63,0,0,1,2.16,2.47,8.9,8.9,0,0,1,.75,3.79v.9H211.1v-1.53h10.08l-.51.39a5.85,5.85,0,0,0-1.08-3.75,3.86,3.86,0,0,0-3.21-1.35,4.24,4.24,0,0,0-3.51,1.58,6.61,6.61,0,0,0-1.26,4.25v.27A6,6,0,0,0,213,296a5.16,5.16,0,0,0,3.92,1.46,7.77,7.77,0,0,0,2.53-.41,6.88,6.88,0,0,0,2.27-1.33l.84,1.71a6.66,6.66,0,0,1-2.5,1.49A9.7,9.7,0,0,1,216.86,299.42Z"/>
      <path d="M234,299.42a5.94,5.94,0,0,1-3.51-1,5,5,0,0,1-2-2.83h.33v3.6h-2.4V277.07h2.43V287.6h-.36a5,5,0,0,1,2-2.76,6,6,0,0,1,3.51-1,6.43,6.43,0,0,1,3.52.95,6.29,6.29,0,0,1,2.31,2.68,9.66,9.66,0,0,1,.82,4.17,9.52,9.52,0,0,1-.84,4.17,6.13,6.13,0,0,1-5.82,3.63Zm-.51-2A4.33,4.33,0,0,0,237,296a8,8,0,0,0,0-8.71,4.31,4.31,0,0,0-3.42-1.49,4.26,4.26,0,0,0-3.4,1.49,8.06,8.06,0,0,0,0,8.7A4.26,4.26,0,0,0,233.54,297.44Z"/>
      <path d="M249.5,299.42a11,11,0,0,1-3.36-.49,7.07,7.07,0,0,1-2.58-1.4l.84-1.71a7.73,7.73,0,0,0,2.42,1.29,8.8,8.8,0,0,0,2.72.42,4.71,4.71,0,0,0,2.71-.64,2.07,2.07,0,0,0,.92-1.79,1.78,1.78,0,0,0-.58-1.4,4.3,4.3,0,0,0-1.91-.82l-2.79-.57a5.51,5.51,0,0,1-2.88-1.42,3.56,3.56,0,0,1-1-2.57,4,4,0,0,1,.69-2.33,4.64,4.64,0,0,1,2-1.59,7.58,7.58,0,0,1,3.09-.58,9,9,0,0,1,3,.5,6.14,6.14,0,0,1,2.33,1.42l-.87,1.68a6,6,0,0,0-2.06-1.3,6.73,6.73,0,0,0-2.38-.43,4.21,4.21,0,0,0-2.65.71,2.25,2.25,0,0,0-.89,1.84,1.93,1.93,0,0,0,.56,1.42,3.52,3.52,0,0,0,1.72.83l2.79.57a6.41,6.41,0,0,1,3,1.39,3.32,3.32,0,0,1,1,2.54,3.83,3.83,0,0,1-.75,2.35,4.75,4.75,0,0,1-2.08,1.55A8.34,8.34,0,0,1,249.5,299.42Z"/>
      <path d="M259.07,280.67v-2.73h3v2.73Zm.3,18.48V284.09h2.43v15.06Z"/>
      <path d="M271.85,299.42a4.37,4.37,0,0,1-3.39-1.27,5.54,5.54,0,0,1-1.17-3.86V286h-2.94v-1.89h2.94V280l2.43-.69v4.8H274V286h-4.32v8a4.14,4.14,0,0,0,.61,2.56,2.22,2.22,0,0,0,1.85.77,4.49,4.49,0,0,0,1-.11A5,5,0,0,0,274,297v2a4.67,4.67,0,0,1-1,.29A6.6,6.6,0,0,1,271.85,299.42Z"/>
      <path d="M283.55,299.42a7.51,7.51,0,0,1-5.58-2.05,7.75,7.75,0,0,1-2-5.71,8.93,8.93,0,0,1,.9-4.12,6.66,6.66,0,0,1,2.52-2.73,7.08,7.08,0,0,1,3.72-1,6.51,6.51,0,0,1,3.48.87,5.63,5.63,0,0,1,2.16,2.47,8.9,8.9,0,0,1,.75,3.79v.9H277.79v-1.53h10.08l-.51.39a5.85,5.85,0,0,0-1.08-3.75,3.86,3.86,0,0,0-3.21-1.35,4.24,4.24,0,0,0-3.51,1.58,6.61,6.61,0,0,0-1.26,4.25v.27a6,6,0,0,0,1.4,4.28,5.16,5.16,0,0,0,3.92,1.46,7.77,7.77,0,0,0,2.53-.41,6.88,6.88,0,0,0,2.27-1.33l.84,1.71a6.66,6.66,0,0,1-2.5,1.49A9.7,9.7,0,0,1,283.55,299.42Z"/>
    </g>
    <g>
      <path d="M126.26,606.15v-19h-7.47V585h17.4v2.1h-7.44v19Z"/>
      <path d="M139,606.15V584.07h2.43v10.35H141a5,5,0,0,1,2.11-2.68,6.42,6.42,0,0,1,3.44-.92,5.16,5.16,0,0,1,4,1.46,6.36,6.36,0,0,1,1.32,4.39v9.48h-2.43v-9.33a4.65,4.65,0,0,0-.83-3.06,3.32,3.32,0,0,0-2.65-1,4.43,4.43,0,0,0-3.35,1.29,4.67,4.67,0,0,0-1.25,3.39v8.67Z"/>
      <path d="M163.25,606.42a7.51,7.51,0,0,1-5.58-2.05,7.75,7.75,0,0,1-2-5.71,8.93,8.93,0,0,1,.9-4.12,6.66,6.66,0,0,1,2.52-2.73,7.08,7.08,0,0,1,3.72-1,6.51,6.51,0,0,1,3.48.87,5.63,5.63,0,0,1,2.16,2.47,8.9,8.9,0,0,1,.75,3.79v.9H157.49v-1.53h10.08l-.51.39A5.85,5.85,0,0,0,166,594a3.86,3.86,0,0,0-3.21-1.35,4.24,4.24,0,0,0-3.51,1.58,6.61,6.61,0,0,0-1.26,4.25v.27a6,6,0,0,0,1.4,4.28,5.16,5.16,0,0,0,3.92,1.46,7.77,7.77,0,0,0,2.53-.41,6.88,6.88,0,0,0,2.27-1.33l.84,1.71a6.66,6.66,0,0,1-2.5,1.49A9.7,9.7,0,0,1,163.25,606.42Z"/>
      <path d="M187,606.42a7.47,7.47,0,0,1-3.85-1,6.4,6.4,0,0,1-2.52-2.73,9.29,9.29,0,0,1-.89-4.2,9,9,0,0,1,.9-4.18,6.17,6.17,0,0,1,2.54-2.62,7.8,7.8,0,0,1,3.83-.9,8,8,0,0,1,2.8.51,6,6,0,0,1,2.27,1.44l-.87,1.74a6,6,0,0,0-2-1.29,5.66,5.66,0,0,0-2.08-.42,4.57,4.57,0,0,0-3.63,1.47,6.32,6.32,0,0,0-1.29,4.29,6.51,6.51,0,0,0,1.29,4.32,4.49,4.49,0,0,0,3.63,1.53,6,6,0,0,0,2.05-.39,5.69,5.69,0,0,0,2-1.29l.87,1.71a6.1,6.1,0,0,1-2.31,1.47A7.92,7.92,0,0,1,187,606.42Z"/>
      <path d="M201.44,606.42a7.28,7.28,0,0,1-3.76-.94,6.29,6.29,0,0,1-2.48-2.7,10.39,10.39,0,0,1,0-8.33,6.31,6.31,0,0,1,2.48-2.68,8,8,0,0,1,7.56,0,6.42,6.42,0,0,1,2.49,2.68,10.23,10.23,0,0,1,0,8.33,6.39,6.39,0,0,1-2.49,2.7A7.35,7.35,0,0,1,201.44,606.42Zm0-2a4.25,4.25,0,0,0,3.42-1.49,8.1,8.1,0,0,0,0-8.7,4.26,4.26,0,0,0-3.41-1.49,4.22,4.22,0,0,0-3.39,1.49,8.14,8.14,0,0,0,0,8.7A4.22,4.22,0,0,0,201.44,604.44Z"/>
      <path d="M212.39,606.15V594.57q0-.84-.08-1.72t-.17-1.75h2.34l.3,3.3h-.36a5.21,5.21,0,0,1,2.11-2.66,6.21,6.21,0,0,1,3.38-.92,5.34,5.34,0,0,1,4,1.42,6.3,6.3,0,0,1,1.36,4.49v9.42h-2.43v-9.27a4.65,4.65,0,0,0-.85-3.11,3.35,3.35,0,0,0-2.66-1,4.38,4.38,0,0,0-3.33,1.29,4.79,4.79,0,0,0-1.23,3.45v8.61Z"/>
      <path d="M235.31,606.42a4.37,4.37,0,0,1-3.39-1.27,5.54,5.54,0,0,1-1.17-3.86V593h-2.94v-1.89h2.94V587l2.43-.69v4.8h4.32V593h-4.32v8a4.14,4.14,0,0,0,.61,2.56,2.22,2.22,0,0,0,1.85.77,4.49,4.49,0,0,0,1-.11,5,5,0,0,0,.81-.25v2a4.67,4.67,0,0,1-1,.29A6.6,6.6,0,0,1,235.31,606.42Z"/>
      <path d="M247,606.42a7.51,7.51,0,0,1-5.58-2.05,7.75,7.75,0,0,1-2-5.71,8.93,8.93,0,0,1,.9-4.12,6.66,6.66,0,0,1,2.52-2.73,7.08,7.08,0,0,1,3.72-1,6.51,6.51,0,0,1,3.48.87,5.63,5.63,0,0,1,2.16,2.47,8.9,8.9,0,0,1,.75,3.79v.9H241.25v-1.53h10.08l-.51.39a5.85,5.85,0,0,0-1.08-3.75,3.86,3.86,0,0,0-3.21-1.35A4.24,4.24,0,0,0,243,594.2a6.61,6.61,0,0,0-1.26,4.25v.27a6,6,0,0,0,1.4,4.28,5.16,5.16,0,0,0,3.92,1.46,7.77,7.77,0,0,0,2.53-.41,6.88,6.88,0,0,0,2.27-1.33l.84,1.71a6.66,6.66,0,0,1-2.5,1.49A9.7,9.7,0,0,1,247,606.42Z"/>
      <path d="M256.64,606.15V594.57q0-.84-.08-1.72t-.17-1.75h2.34l.3,3.3h-.36a5.21,5.21,0,0,1,2.11-2.66,6.21,6.21,0,0,1,3.38-.92,5.34,5.34,0,0,1,4,1.42,6.3,6.3,0,0,1,1.36,4.49v9.42h-2.43v-9.27a4.65,4.65,0,0,0-.85-3.11,3.35,3.35,0,0,0-2.66-1,4.38,4.38,0,0,0-3.33,1.29,4.79,4.79,0,0,0-1.23,3.45v8.61Z"/>
      <path d="M279.56,606.42a4.37,4.37,0,0,1-3.39-1.27,5.54,5.54,0,0,1-1.17-3.86V593h-2.94v-1.89H275V587l2.43-.69v4.8h4.32V593h-4.32v8a4.14,4.14,0,0,0,.61,2.56,2.22,2.22,0,0,0,1.85.77,4.49,4.49,0,0,0,1-.11,5,5,0,0,0,.81-.25v2a4.67,4.67,0,0,1-1,.29A6.6,6.6,0,0,1,279.56,606.42Z"/>
      <path d="M292.25,587.67v-2.73h3v2.73Zm.3,18.48V591.09H295v15.06Z"/>
      <path d="M304.7,606.42a11,11,0,0,1-3.36-.49,7.07,7.07,0,0,1-2.58-1.4l.84-1.71a7.73,7.73,0,0,0,2.42,1.29,8.8,8.8,0,0,0,2.72.42,4.71,4.71,0,0,0,2.71-.64,2.07,2.07,0,0,0,.92-1.79,1.78,1.78,0,0,0-.58-1.4,4.3,4.3,0,0,0-1.91-.82l-2.79-.57a5.51,5.51,0,0,1-2.88-1.42,3.56,3.56,0,0,1-1-2.57,4,4,0,0,1,.69-2.33,4.64,4.64,0,0,1,2-1.59,7.58,7.58,0,0,1,3.09-.58,9,9,0,0,1,3,.5,6.14,6.14,0,0,1,2.33,1.42l-.87,1.68a6,6,0,0,0-2.06-1.3,6.73,6.73,0,0,0-2.38-.43,4.21,4.21,0,0,0-2.65.71,2.25,2.25,0,0,0-.89,1.84,1.93,1.93,0,0,0,.56,1.42,3.52,3.52,0,0,0,1.72.83l2.79.57a6.41,6.41,0,0,1,3,1.39,3.32,3.32,0,0,1,1,2.54,3.83,3.83,0,0,1-.75,2.35,4.75,4.75,0,0,1-2.08,1.55A8.34,8.34,0,0,1,304.7,606.42Z"/>
      <path d="M166.85,623.67v-2.73h3v2.73Zm.3,18.48V627.09h2.43v15.06Z"/>
      <path d="M174.29,642.15V630.57q0-.84-.08-1.72t-.17-1.75h2.34l.3,3.3h-.36a5.21,5.21,0,0,1,2.11-2.66,6.21,6.21,0,0,1,3.38-.92,5.34,5.34,0,0,1,4,1.42,6.3,6.3,0,0,1,1.36,4.49v9.42h-2.43v-9.27a4.65,4.65,0,0,0-.85-3.11,3.35,3.35,0,0,0-2.66-1,4.38,4.38,0,0,0-3.33,1.29,4.79,4.79,0,0,0-1.23,3.45v8.61Z"/>
      <path d="M197.57,642.42a6.39,6.39,0,0,1-3.48-.94,6.24,6.24,0,0,1-2.32-2.69,11,11,0,0,1,0-8.37,6.15,6.15,0,0,1,2.32-2.67,6.48,6.48,0,0,1,3.48-.93,6.08,6.08,0,0,1,3.53,1,4.94,4.94,0,0,1,2,2.76h-.36V620.07h2.43v22.08h-2.4v-3.6h.33a4.85,4.85,0,0,1-2,2.83A6.08,6.08,0,0,1,197.57,642.42Zm.51-2A4.31,4.31,0,0,0,201.5,639a8,8,0,0,0,0-8.7,4.31,4.31,0,0,0-3.42-1.49,4.26,4.26,0,0,0-3.41,1.49,8.06,8.06,0,0,0,0,8.7A4.26,4.26,0,0,0,198.08,640.44Z"/>
      <path d="M216.56,642.42a7.51,7.51,0,0,1-5.58-2.05,7.75,7.75,0,0,1-2-5.71,8.93,8.93,0,0,1,.9-4.12,6.66,6.66,0,0,1,2.52-2.73,7.08,7.08,0,0,1,3.72-1,6.51,6.51,0,0,1,3.48.87,5.63,5.63,0,0,1,2.16,2.47,8.9,8.9,0,0,1,.75,3.79v.9H210.8v-1.53h10.08l-.51.39a5.85,5.85,0,0,0-1.08-3.75,3.86,3.86,0,0,0-3.21-1.35,4.24,4.24,0,0,0-3.51,1.58,6.61,6.61,0,0,0-1.26,4.25v.27a6,6,0,0,0,1.4,4.28,5.16,5.16,0,0,0,3.92,1.46,7.77,7.77,0,0,0,2.53-.41,6.88,6.88,0,0,0,2.27-1.33l.84,1.71a6.66,6.66,0,0,1-2.5,1.49A9.7,9.7,0,0,1,216.56,642.42Z"/>
      <path d="M224,642.15l6.75-8.37V635l-6.39-7.89h2.94l4.83,6.15h-.87l4.8-6.15H239L232.7,635v-1.11l6.69,8.31h-3l-5.16-6.57h.9l-5.22,6.57Z"/>
      <path d="M248.48,642.42a7.51,7.51,0,0,1-5.58-2.05,7.75,7.75,0,0,1-2-5.71,8.93,8.93,0,0,1,.9-4.12,6.66,6.66,0,0,1,2.52-2.73,7.08,7.08,0,0,1,3.72-1,6.51,6.51,0,0,1,3.48.87,5.63,5.63,0,0,1,2.16,2.47,8.9,8.9,0,0,1,.75,3.79v.9H242.72v-1.53H252.8l-.51.39a5.85,5.85,0,0,0-1.08-3.75,3.86,3.86,0,0,0-3.21-1.35,4.24,4.24,0,0,0-3.51,1.58,6.61,6.61,0,0,0-1.26,4.25v.27a6,6,0,0,0,1.4,4.28,5.16,5.16,0,0,0,3.92,1.46,7.77,7.77,0,0,0,2.53-.41,6.88,6.88,0,0,0,2.27-1.33l.84,1.71a6.66,6.66,0,0,1-2.5,1.49A9.7,9.7,0,0,1,248.48,642.42Z"/>
      <path d="M263.81,642.42a6.39,6.39,0,0,1-3.48-.94,6.24,6.24,0,0,1-2.32-2.69,11,11,0,0,1,0-8.37,6.15,6.15,0,0,1,2.32-2.67,6.48,6.48,0,0,1,3.48-.93,6.08,6.08,0,0,1,3.53,1,4.94,4.94,0,0,1,2,2.76H269V620.07h2.43v22.08H269v-3.6h.33a4.85,4.85,0,0,1-2,2.83A6.08,6.08,0,0,1,263.81,642.42Zm.51-2a4.31,4.31,0,0,0,3.42-1.49,8,8,0,0,0,0-8.7,4.31,4.31,0,0,0-3.42-1.49,4.26,4.26,0,0,0-3.41,1.49,8.06,8.06,0,0,0,0,8.7A4.26,4.26,0,0,0,264.32,640.44Z"/>
    </g>
    <g>
      <rect x="148" y="758.75" width="158" height="30.2" fill="#6156e1"/>
      <rect x="148" y="802.99" width="115.87" height="30.2" fill="#515151"/>
      <rect x="148" y="847.23" width="82.16" height="30.2" fill="#828282"/>
      <rect x="148" y="891.47" width="44.94" height="30.2" fill="#cecece"/>
    </g>
    <g>
      <path d="M125.7,781.82v-1.56h3.65V767.87h1L126,770.53v-1.83l3.81-2.4h1.32v13.95h3.43v1.56Z"/>
      <path d="M137.49,781.82v-2.24h2.24v2.24Z"/>
    </g>
    <g>
      <path d="M122.79,825.82v-1.36l5.5-5.74a9.73,9.73,0,0,0,1.62-2.14,4.5,4.5,0,0,0,.54-2.12,2.49,2.49,0,0,0-.84-2,3.71,3.71,0,0,0-2.42-.69,5.94,5.94,0,0,0-2.28.43,6.5,6.5,0,0,0-2,1.35l-.66-1.43a6.5,6.5,0,0,1,2.24-1.42,7.77,7.77,0,0,1,2.88-.54A5.43,5.43,0,0,1,131,811.2a3.84,3.84,0,0,1,1.28,3.09,5.84,5.84,0,0,1-.71,2.8,12.57,12.57,0,0,1-2.08,2.74l-4.86,4.93v-.51h8.32v1.56Z"/>
      <path d="M135.49,825.82v-2.24h2.24v2.24Z"/>
    </g>
    <g>
      <path d="M127.41,871a9.29,9.29,0,0,1-3-.48,6.53,6.53,0,0,1-2.4-1.39l.68-1.41a7.29,7.29,0,0,0,2.22,1.28,7.49,7.49,0,0,0,2.46.4,4.08,4.08,0,0,0,2.64-.74,2.63,2.63,0,0,0,.9-2.17,2.47,2.47,0,0,0-.92-2.08,4.36,4.36,0,0,0-2.71-.71H125V862.2h2.18a3.57,3.57,0,0,0,2.44-.79,2.72,2.72,0,0,0,.9-2.16,2.25,2.25,0,0,0-.83-1.88,3.75,3.75,0,0,0-2.36-.65A6,6,0,0,0,123,858.5l-.68-1.43a6.15,6.15,0,0,1,2.27-1.44,8,8,0,0,1,2.86-.52,5.52,5.52,0,0,1,3.59,1.06,3.56,3.56,0,0,1,1.3,2.93,3.82,3.82,0,0,1-.81,2.45,4.08,4.08,0,0,1-2.2,1.4v-.24a4.09,4.09,0,0,1,2.55,1.31,3.88,3.88,0,0,1,.9,2.63,3.94,3.94,0,0,1-1.42,3.2A5.94,5.94,0,0,1,127.41,871Z"/>
      <path d="M135.49,870.82v-2.24h2.24v2.24Z"/>
    </g>
    <g>
      <path d="M129.39,914.82v-3.37H122v-1.32l7.68-10.82h1.5V910h2.38v1.47h-2.38v3.37Zm0-4.84v-8.51h.48l-6.38,9V910Z"/>
      <path d="M135.49,914.82v-2.24h2.24v2.24Z"/>
    </g>
    <g>
      <path d="M105.1,972.42a10.39,10.39,0,0,1-5.4-1.32,8.67,8.67,0,0,1-3.41-3.75,14.7,14.7,0,0,1,0-11.57,8.69,8.69,0,0,1,3.41-3.73,10.39,10.39,0,0,1,5.4-1.32,11,11,0,0,1,4,.69,8.9,8.9,0,0,1,3.09,2l-.93,2a10.51,10.51,0,0,0-2.85-1.84,8.58,8.58,0,0,0-3.3-.58,6.8,6.8,0,0,0-5.52,2.25,11.57,11.57,0,0,0,0,12.67,6.78,6.78,0,0,0,5.52,2.26,8.56,8.56,0,0,0,3.3-.58,10.19,10.19,0,0,0,2.85-1.87l.93,2a9.3,9.3,0,0,1-3.09,2A10.8,10.8,0,0,1,105.1,972.42Z"/>
      <path d="M121.27,972.42a7.28,7.28,0,0,1-3.76-.94,6.29,6.29,0,0,1-2.48-2.7,10.39,10.39,0,0,1,0-8.33,6.31,6.31,0,0,1,2.48-2.68,8,8,0,0,1,7.56,0,6.42,6.42,0,0,1,2.49,2.68,10.23,10.23,0,0,1,0,8.33,6.39,6.39,0,0,1-2.49,2.7A7.35,7.35,0,0,1,121.27,972.42Zm0-2a4.25,4.25,0,0,0,3.42-1.49,8.1,8.1,0,0,0,0-8.7,4.26,4.26,0,0,0-3.41-1.49,4.22,4.22,0,0,0-3.39,1.49,8.14,8.14,0,0,0,0,8.7A4.22,4.22,0,0,0,121.27,970.44Z"/>
      <path d="M132.22,972.15V960.57q0-.84-.08-1.72t-.17-1.75h2.34l.3,3.3h-.36a5.21,5.21,0,0,1,2.11-2.66,6.21,6.21,0,0,1,3.38-.92,5.34,5.34,0,0,1,4,1.42,6.3,6.3,0,0,1,1.36,4.49v9.42h-2.43v-9.27a4.65,4.65,0,0,0-.85-3.11,3.35,3.35,0,0,0-2.66-1,4.38,4.38,0,0,0-3.33,1.29,4.79,4.79,0,0,0-1.23,3.45v8.61Z"/>
      <path d="M155.14,972.42a4.37,4.37,0,0,1-3.39-1.27,5.54,5.54,0,0,1-1.17-3.86V959h-2.94v-1.89h2.94V953l2.43-.69v4.8h4.32V959H153v8a4.14,4.14,0,0,0,.61,2.56,2.22,2.22,0,0,0,1.85.77,4.49,4.49,0,0,0,1-.11,5,5,0,0,0,.81-.25v2a4.67,4.67,0,0,1-1,.29A6.6,6.6,0,0,1,155.14,972.42Z"/>
      <path d="M166.84,972.42a7.51,7.51,0,0,1-5.58-2.05,7.75,7.75,0,0,1-2-5.71,8.93,8.93,0,0,1,.9-4.12,6.66,6.66,0,0,1,2.52-2.73,7.08,7.08,0,0,1,3.72-1,6.51,6.51,0,0,1,3.48.87,5.63,5.63,0,0,1,2.16,2.47,8.9,8.9,0,0,1,.75,3.79v.9H161.08v-1.53h10.08l-.51.39a5.85,5.85,0,0,0-1.08-3.75,3.86,3.86,0,0,0-3.21-1.35,4.24,4.24,0,0,0-3.51,1.58,6.61,6.61,0,0,0-1.26,4.25v.27A6,6,0,0,0,163,969a5.16,5.16,0,0,0,3.92,1.46,7.77,7.77,0,0,0,2.53-.41,6.88,6.88,0,0,0,2.27-1.33l.84,1.71a6.66,6.66,0,0,1-2.5,1.49A9.7,9.7,0,0,1,166.84,972.42Z"/>
      <path d="M176.47,972.15V960.57q0-.84-.08-1.72t-.17-1.75h2.34l.3,3.3h-.36a5.21,5.21,0,0,1,2.11-2.66,6.21,6.21,0,0,1,3.38-.92,5.34,5.34,0,0,1,4,1.42,6.3,6.3,0,0,1,1.36,4.49v9.42H187v-9.27a4.65,4.65,0,0,0-.85-3.11,3.35,3.35,0,0,0-2.66-1,4.38,4.38,0,0,0-3.33,1.29,4.79,4.79,0,0,0-1.23,3.45v8.61Z"/>
      <path d="M199.39,972.42a4.37,4.37,0,0,1-3.39-1.27,5.54,5.54,0,0,1-1.17-3.86V959h-2.94v-1.89h2.94V953l2.43-.69v4.8h4.32V959h-4.32v8a4.14,4.14,0,0,0,.61,2.56,2.22,2.22,0,0,0,1.85.77,4.49,4.49,0,0,0,1-.11,5,5,0,0,0,.81-.25v2a4.67,4.67,0,0,1-1,.29A6.6,6.6,0,0,1,199.39,972.42Z"/>
      <path d="M212.08,953.67v-2.73h3v2.73Zm.3,18.48V957.09h2.43v15.06Z"/>
      <path d="M224.53,972.42a11,11,0,0,1-3.36-.49,7.07,7.07,0,0,1-2.58-1.4l.84-1.71a7.73,7.73,0,0,0,2.42,1.29,8.8,8.8,0,0,0,2.72.42,4.71,4.71,0,0,0,2.71-.64,2.07,2.07,0,0,0,.92-1.79,1.78,1.78,0,0,0-.58-1.4,4.3,4.3,0,0,0-1.91-.82l-2.79-.57a5.51,5.51,0,0,1-2.88-1.42,3.56,3.56,0,0,1-1-2.57,4,4,0,0,1,.69-2.33,4.64,4.64,0,0,1,2-1.59,7.58,7.58,0,0,1,3.09-.58,9,9,0,0,1,3,.5,6.14,6.14,0,0,1,2.33,1.42l-.87,1.68a6,6,0,0,0-2.06-1.3,6.73,6.73,0,0,0-2.38-.43,4.21,4.21,0,0,0-2.65.71,2.25,2.25,0,0,0-.89,1.84,1.93,1.93,0,0,0,.56,1.42,3.52,3.52,0,0,0,1.72.83l2.79.57a6.41,6.41,0,0,1,3,1.39,3.32,3.32,0,0,1,1,2.54,3.83,3.83,0,0,1-.75,2.35,4.75,4.75,0,0,1-2.08,1.55A8.34,8.34,0,0,1,224.53,972.42Z"/>
      <path d="M242.17,972.15V960.72q0-.9,0-1.83t-.14-1.8h2.34l.3,3.66-.42,0a5,5,0,0,1,1-2.22,4.8,4.8,0,0,1,1.77-1.3,5.37,5.37,0,0,1,2.13-.44c.3,0,.56,0,.8,0a2.27,2.27,0,0,1,.65.15l0,2.16a4.2,4.2,0,0,0-.83-.19,7.17,7.17,0,0,0-.85,0,4.14,4.14,0,0,0-2.29.63,4.08,4.08,0,0,0-1.47,1.62,4.63,4.63,0,0,0-.5,2.1v8.88Z"/>
      <path d="M258.7,972.42a6.45,6.45,0,0,1-3.51-.94,6.24,6.24,0,0,1-2.32-2.69,11,11,0,0,1,0-8.37,6.15,6.15,0,0,1,2.32-2.67,6.53,6.53,0,0,1,3.51-.93,6,6,0,0,1,3.52,1,4.86,4.86,0,0,1,2,2.8h-.36l.33-3.57h2.34q-.09.87-.17,1.75t-.07,1.72v11.58h-2.43v-3.54h.33a4.78,4.78,0,0,1-2,2.79A6,6,0,0,1,258.7,972.42Zm.48-2A4.25,4.25,0,0,0,262.6,969a8.14,8.14,0,0,0,0-8.7,4.66,4.66,0,0,0-6.83,0,8.06,8.06,0,0,0,0,8.7A4.26,4.26,0,0,0,259.18,970.44Z"/>
      <path d="M276.31,972.42a4.37,4.37,0,0,1-3.39-1.27,5.54,5.54,0,0,1-1.17-3.86V959h-2.94v-1.89h2.94V953l2.43-.69v4.8h4.32V959h-4.32v8a4.14,4.14,0,0,0,.61,2.56,2.22,2.22,0,0,0,1.85.77,4.49,4.49,0,0,0,1-.11,5,5,0,0,0,.81-.25v2a4.67,4.67,0,0,1-1,.29A6.6,6.6,0,0,1,276.31,972.42Z"/>
      <path d="M288,972.42a7.51,7.51,0,0,1-5.58-2.05,7.75,7.75,0,0,1-2-5.71,8.93,8.93,0,0,1,.9-4.12,6.66,6.66,0,0,1,2.52-2.73,7.08,7.08,0,0,1,3.72-1,6.51,6.51,0,0,1,3.48.87,5.63,5.63,0,0,1,2.16,2.47,8.9,8.9,0,0,1,.75,3.79v.9H282.25v-1.53h10.08l-.51.39a5.85,5.85,0,0,0-1.08-3.75,3.86,3.86,0,0,0-3.21-1.35A4.24,4.24,0,0,0,284,960.2a6.61,6.61,0,0,0-1.26,4.25v.27a6,6,0,0,0,1.4,4.28,5.16,5.16,0,0,0,3.92,1.46,7.77,7.77,0,0,0,2.53-.41,6.88,6.88,0,0,0,2.27-1.33l.84,1.71a6.66,6.66,0,0,1-2.5,1.49A9.7,9.7,0,0,1,288,972.42Z"/>
      <path d="M303.34,972.42a6.39,6.39,0,0,1-3.48-.94,6.24,6.24,0,0,1-2.32-2.69,11,11,0,0,1,0-8.37,6.15,6.15,0,0,1,2.32-2.67,6.48,6.48,0,0,1,3.48-.93,6.08,6.08,0,0,1,3.53,1,4.94,4.94,0,0,1,2,2.76h-.36V950.07h2.43v22.08h-2.4v-3.6h.33a4.85,4.85,0,0,1-2,2.83A6.08,6.08,0,0,1,303.34,972.42Zm.51-2a4.31,4.31,0,0,0,3.42-1.49,8,8,0,0,0,0-8.7,4.31,4.31,0,0,0-3.42-1.49,4.26,4.26,0,0,0-3.41,1.49,8.06,8.06,0,0,0,0,8.7A4.26,4.26,0,0,0,303.85,970.44Z"/>
      <path d="M126.21,1008.42a5.94,5.94,0,0,1-3.51-1,5,5,0,0,1-2-2.83H121v3.6h-2.4V986.07h2.43V996.6h-.36a5,5,0,0,1,2-2.76,6,6,0,0,1,3.51-1,6.43,6.43,0,0,1,3.52.95,6.29,6.29,0,0,1,2.31,2.68,9.66,9.66,0,0,1,.82,4.17,9.52,9.52,0,0,1-.84,4.17,6.13,6.13,0,0,1-5.82,3.63Zm-.51-2a4.33,4.33,0,0,0,3.42-1.47,8,8,0,0,0,0-8.71,4.31,4.31,0,0,0-3.42-1.49,4.26,4.26,0,0,0-3.4,1.49,8.06,8.06,0,0,0,0,8.7A4.26,4.26,0,0,0,125.7,1006.44Z"/>
      <path d="M135.84,1015l-.57-2a12.61,12.61,0,0,0,2.35-.76,4.63,4.63,0,0,0,1.57-1.16,6.51,6.51,0,0,0,1.08-1.8l.78-1.77-.06,1-6.57-15.39h2.64l5.43,13.23h-.78l5.37-13.23h2.55l-7,16.32a11.56,11.56,0,0,1-1.32,2.42,7.58,7.58,0,0,1-1.54,1.59,7.06,7.06,0,0,1-1.81,1A13,13,0,0,1,135.84,1015Z"/>
      <path d="M160.14,1008.15V996.72q0-.9,0-1.83t-.14-1.8h2.34l.3,3.66-.42,0a5,5,0,0,1,1-2.22,4.8,4.8,0,0,1,1.77-1.3,5.37,5.37,0,0,1,2.13-.44c.3,0,.56,0,.8,0a2.27,2.27,0,0,1,.65.15l0,2.16a4.2,4.2,0,0,0-.83-.19,7.17,7.17,0,0,0-.85,0,4.14,4.14,0,0,0-2.29.63,4.08,4.08,0,0,0-1.47,1.62,4.63,4.63,0,0,0-.5,2.1v8.88Z"/>
      <path d="M177.6,1008.42a7.51,7.51,0,0,1-5.58-2.05,7.75,7.75,0,0,1-2-5.71,8.93,8.93,0,0,1,.9-4.12,6.66,6.66,0,0,1,2.52-2.73,7.08,7.08,0,0,1,3.72-1,6.51,6.51,0,0,1,3.48.87,5.63,5.63,0,0,1,2.16,2.47,8.9,8.9,0,0,1,.75,3.79v.9H171.83v-1.53h10.08l-.51.39a5.85,5.85,0,0,0-1.08-3.75,3.86,3.86,0,0,0-3.21-1.35,4.24,4.24,0,0,0-3.51,1.58,6.61,6.61,0,0,0-1.26,4.25v.27a6,6,0,0,0,1.4,4.28,5.16,5.16,0,0,0,3.92,1.46,7.77,7.77,0,0,0,2.53-.41,6.88,6.88,0,0,0,2.27-1.33l.84,1.71a6.66,6.66,0,0,1-2.5,1.49A9.7,9.7,0,0,1,177.6,1008.42Z"/>
      <path d="M187.23,1008.15V986.07h2.43v22.08Z"/>
      <path d="M201.05,1008.42a7.51,7.51,0,0,1-5.58-2.05,7.75,7.75,0,0,1-2-5.71,8.93,8.93,0,0,1,.9-4.12,6.66,6.66,0,0,1,2.52-2.73,7.08,7.08,0,0,1,3.72-1,6.51,6.51,0,0,1,3.48.87,5.63,5.63,0,0,1,2.16,2.47A8.9,8.9,0,0,1,207,1000v.9H195.29v-1.53h10.08l-.51.39a5.85,5.85,0,0,0-1.08-3.75,3.86,3.86,0,0,0-3.21-1.35,4.24,4.24,0,0,0-3.51,1.58,6.61,6.61,0,0,0-1.26,4.25v.27a6,6,0,0,0,1.4,4.28,5.16,5.16,0,0,0,3.92,1.46,7.77,7.77,0,0,0,2.53-.41,6.88,6.88,0,0,0,2.27-1.33l.84,1.71a6.66,6.66,0,0,1-2.5,1.49A9.7,9.7,0,0,1,201.05,1008.42Z"/>
      <path d="M214.94,1008.15l-6.45-15.06h2.64l5.4,13.26h-.81l5.46-13.26h2.52l-6.45,15.06Z"/>
      <path d="M231.86,1008.42a6.45,6.45,0,0,1-3.51-.94,6.24,6.24,0,0,1-2.32-2.69,11,11,0,0,1,0-8.37,6.15,6.15,0,0,1,2.32-2.67,6.53,6.53,0,0,1,3.51-.93,6,6,0,0,1,3.52,1,4.86,4.86,0,0,1,2,2.8H237l.33-3.57h2.34q-.09.87-.17,1.75t-.07,1.72v11.58H237v-3.54h.33a4.78,4.78,0,0,1-2,2.79A6,6,0,0,1,231.86,1008.42Zm.48-2a4.25,4.25,0,0,0,3.42-1.49,8.14,8.14,0,0,0,0-8.7,4.66,4.66,0,0,0-6.83,0,8.06,8.06,0,0,0,0,8.7A4.26,4.26,0,0,0,232.34,1006.44Z"/>
      <path d="M244.13,1008.15V996.57q0-.84-.08-1.72t-.17-1.75h2.34l.3,3.3h-.36a5.21,5.21,0,0,1,2.11-2.66,6.21,6.21,0,0,1,3.38-.92,5.34,5.34,0,0,1,4,1.42,6.3,6.3,0,0,1,1.36,4.49v9.42h-2.43v-9.27a4.65,4.65,0,0,0-.85-3.11,3.35,3.35,0,0,0-2.66-1,4.38,4.38,0,0,0-3.33,1.29,4.79,4.79,0,0,0-1.23,3.45v8.61Z"/>
      <path d="M268,1008.42a7.47,7.47,0,0,1-3.85-1,6.4,6.4,0,0,1-2.52-2.73,9.29,9.29,0,0,1-.89-4.2,9,9,0,0,1,.9-4.18,6.17,6.17,0,0,1,2.54-2.62,7.8,7.8,0,0,1,3.83-.9,8,8,0,0,1,2.8.51,6,6,0,0,1,2.27,1.44l-.87,1.74a6,6,0,0,0-2-1.29,5.66,5.66,0,0,0-2.08-.42,4.57,4.57,0,0,0-3.63,1.47,6.32,6.32,0,0,0-1.29,4.29,6.51,6.51,0,0,0,1.29,4.32,4.49,4.49,0,0,0,3.63,1.53,6,6,0,0,0,2.05-.39,5.69,5.69,0,0,0,2-1.29l.87,1.71a6.1,6.1,0,0,1-2.31,1.47A7.92,7.92,0,0,1,268,1008.42Z"/>
      <path d="M276.08,1015l-.57-2a12.61,12.61,0,0,0,2.35-.76,4.63,4.63,0,0,0,1.57-1.16,6.51,6.51,0,0,0,1.08-1.8l.78-1.77-.06,1-6.57-15.39h2.64l5.43,13.23H282l5.37-13.23h2.55l-7,16.32a11.56,11.56,0,0,1-1.32,2.42,7.58,7.58,0,0,1-1.54,1.59,7.06,7.06,0,0,1-1.81,1A13,13,0,0,1,276.08,1015Z"/>
    </g>
    <g>
      <path d="M107,1308.65v-9.87l.54,1.68-8.76-13h2.88l7,10.53H108L115,1287.5h2.76l-8.73,13,.54-1.68v9.87Z"/>
      <path d="M123.57,1308.92a7.28,7.28,0,0,1-3.76-.94,6.29,6.29,0,0,1-2.48-2.7,10.39,10.39,0,0,1,0-8.33,6.31,6.31,0,0,1,2.48-2.68,8,8,0,0,1,7.56,0,6.42,6.42,0,0,1,2.49,2.68,10.23,10.23,0,0,1,0,8.33,6.39,6.39,0,0,1-2.49,2.7A7.35,7.35,0,0,1,123.57,1308.92Zm0-2a4.25,4.25,0,0,0,3.42-1.49,8.1,8.1,0,0,0,0-8.7,4.26,4.26,0,0,0-3.41-1.49,4.22,4.22,0,0,0-3.39,1.49,8.14,8.14,0,0,0,0,8.7A4.22,4.22,0,0,0,123.57,1306.94Z"/>
      <path d="M139.83,1308.92a5.24,5.24,0,0,1-4-1.47,6.42,6.42,0,0,1-1.37-4.5v-9.36h2.43v9.3a4.59,4.59,0,0,0,.84,3,3.26,3.26,0,0,0,2.61,1,4.14,4.14,0,0,0,3.18-1.29,4.86,4.86,0,0,0,1.2-3.45v-8.58h2.43v15.06h-2.37v-3.39h.39a5.4,5.4,0,0,1-2,2.7A5.65,5.65,0,0,1,139.83,1308.92Z"/>
      <path d="M159.6,1308.65v-11.43q0-.9,0-1.83t-.14-1.8h2.34l.3,3.66-.42,0a5,5,0,0,1,1-2.22,4.8,4.8,0,0,1,1.77-1.3,5.37,5.37,0,0,1,2.13-.44c.3,0,.56,0,.8,0a2.27,2.27,0,0,1,.65.15l0,2.16a4.2,4.2,0,0,0-.83-.19,7.17,7.17,0,0,0-.85,0,4.14,4.14,0,0,0-2.29.63,4.08,4.08,0,0,0-1.47,1.62,4.63,4.63,0,0,0-.5,2.1v8.88Z"/>
      <path d="M177.06,1308.92a7.51,7.51,0,0,1-5.58-2.05,7.75,7.75,0,0,1-2-5.71,8.93,8.93,0,0,1,.9-4.12,6.66,6.66,0,0,1,2.52-2.73,7.08,7.08,0,0,1,3.72-1,6.51,6.51,0,0,1,3.48.87,5.63,5.63,0,0,1,2.16,2.47,8.9,8.9,0,0,1,.75,3.79v.9H171.3v-1.53h10.08l-.51.39a5.85,5.85,0,0,0-1.08-3.75,3.86,3.86,0,0,0-3.21-1.35,4.24,4.24,0,0,0-3.51,1.58,6.61,6.61,0,0,0-1.26,4.25v.27a6,6,0,0,0,1.4,4.28,5.16,5.16,0,0,0,3.92,1.46,7.77,7.77,0,0,0,2.53-.41,6.88,6.88,0,0,0,2.27-1.33l.84,1.71a6.66,6.66,0,0,1-2.5,1.49A9.7,9.7,0,0,1,177.06,1308.92Z"/>
      <path d="M193,1308.92a7.47,7.47,0,0,1-3.85-1,6.4,6.4,0,0,1-2.52-2.73,9.29,9.29,0,0,1-.89-4.2,9,9,0,0,1,.9-4.18,6.17,6.17,0,0,1,2.54-2.62,7.8,7.8,0,0,1,3.83-.9,8,8,0,0,1,2.8.51,6,6,0,0,1,2.27,1.44l-.87,1.74a6,6,0,0,0-2-1.29,5.66,5.66,0,0,0-2.08-.42,4.57,4.57,0,0,0-3.63,1.47,6.32,6.32,0,0,0-1.29,4.29,6.51,6.51,0,0,0,1.29,4.32,4.49,4.49,0,0,0,3.63,1.53,6,6,0,0,0,2.05-.39,5.69,5.69,0,0,0,2-1.29l.87,1.71a6.1,6.1,0,0,1-2.31,1.47A7.92,7.92,0,0,1,193,1308.92Z"/>
      <path d="M207.93,1308.92a7.51,7.51,0,0,1-5.58-2.05,7.75,7.75,0,0,1-2-5.71,8.93,8.93,0,0,1,.9-4.12,6.66,6.66,0,0,1,2.52-2.73,7.08,7.08,0,0,1,3.72-1,6.51,6.51,0,0,1,3.48.87,5.63,5.63,0,0,1,2.16,2.47,8.9,8.9,0,0,1,.75,3.79v.9H202.17v-1.53h10.08l-.51.39a5.85,5.85,0,0,0-1.08-3.75,3.86,3.86,0,0,0-3.21-1.35,4.24,4.24,0,0,0-3.51,1.58,6.61,6.61,0,0,0-1.26,4.25v.27a6,6,0,0,0,1.4,4.28,5.16,5.16,0,0,0,3.92,1.46,7.77,7.77,0,0,0,2.53-.41,6.88,6.88,0,0,0,2.27-1.33l.84,1.71a6.66,6.66,0,0,1-2.5,1.49A9.7,9.7,0,0,1,207.93,1308.92Z"/>
      <path d="M217.26,1290.17v-2.73h3v2.73Zm.3,18.48v-15.06H220v15.06Z"/>
      <path d="M229.14,1308.65l-6.45-15.06h2.64l5.4,13.26h-.81l5.46-13.26h2.52l-6.45,15.06Z"/>
      <path d="M247.11,1308.92a7.51,7.51,0,0,1-5.58-2.05,7.75,7.75,0,0,1-2-5.71,8.93,8.93,0,0,1,.9-4.12,6.66,6.66,0,0,1,2.52-2.73,7.08,7.08,0,0,1,3.72-1,6.51,6.51,0,0,1,3.48.87,5.63,5.63,0,0,1,2.16,2.47,8.9,8.9,0,0,1,.75,3.79v.9H241.35v-1.53h10.08l-.51.39a5.85,5.85,0,0,0-1.08-3.75,3.86,3.86,0,0,0-3.21-1.35,4.24,4.24,0,0,0-3.51,1.58,6.61,6.61,0,0,0-1.26,4.25v.27a6,6,0,0,0,1.4,4.28,5.16,5.16,0,0,0,3.92,1.46,7.77,7.77,0,0,0,2.53-.41,6.88,6.88,0,0,0,2.27-1.33l.84,1.71a6.66,6.66,0,0,1-2.5,1.49A9.7,9.7,0,0,1,247.11,1308.92Z"/>
      <path d="M270.3,1308.92a6.45,6.45,0,0,1-3.51-.94,6.24,6.24,0,0,1-2.32-2.69,11,11,0,0,1,0-8.37,6.15,6.15,0,0,1,2.32-2.67,6.53,6.53,0,0,1,3.51-.93,6,6,0,0,1,3.52,1,4.86,4.86,0,0,1,2,2.8h-.36l.33-3.57h2.34q-.09.87-.17,1.75t-.07,1.72v11.58h-2.43v-3.54h.33a4.78,4.78,0,0,1-2,2.79A6,6,0,0,1,270.3,1308.92Zm.48-2a4.25,4.25,0,0,0,3.42-1.49,8.14,8.14,0,0,0,0-8.7,4.66,4.66,0,0,0-6.83,0,8.06,8.06,0,0,0,0,8.7A4.26,4.26,0,0,0,270.78,1306.94Z"/>
      <path d="M290.4,1308.65v-22.08h2.43v22.08Z"/>
      <path d="M297.24,1290.17v-2.73h3v2.73Zm.3,18.48v-15.06H300v15.06Z"/>
      <path d="M304.68,1308.65v-11.58q0-.84-.08-1.72t-.17-1.75h2.34l.3,3.3h-.36a5.21,5.21,0,0,1,2.11-2.66,6.21,6.21,0,0,1,3.38-.92,5.34,5.34,0,0,1,4,1.42,6.3,6.3,0,0,1,1.36,4.49v9.42h-2.43v-9.27a4.65,4.65,0,0,0-.85-3.11,3.35,3.35,0,0,0-2.66-1,4.38,4.38,0,0,0-3.33,1.29,4.79,4.79,0,0,0-1.23,3.45v8.61Z"/>
      <path d="M322.26,1308.65v-22.08h2.43v13.71h.06l7-6.69h3.06l-8.25,7.86.06-1.23,9,8.43h-3.15l-7.68-7.08h-.06v7.08Z"/>
      <path d="M105.17,1344.92a4.37,4.37,0,0,1-3.39-1.27,5.54,5.54,0,0,1-1.17-3.86v-8.31H97.67v-1.89h2.94v-4.11l2.43-.69v4.8h4.32v1.89H103v8a4.14,4.14,0,0,0,.61,2.56,2.22,2.22,0,0,0,1.85.77,4.49,4.49,0,0,0,1-.11,5,5,0,0,0,.81-.25v2a4.67,4.67,0,0,1-1,.29A6.6,6.6,0,0,1,105.17,1344.92Z"/>
      <path d="M116.36,1344.92a7.28,7.28,0,0,1-3.76-.94,6.29,6.29,0,0,1-2.48-2.7,10.39,10.39,0,0,1,0-8.33,6.31,6.31,0,0,1,2.48-2.68,8,8,0,0,1,7.56,0,6.42,6.42,0,0,1,2.49,2.68,10.23,10.23,0,0,1,0,8.33,6.39,6.39,0,0,1-2.49,2.7A7.35,7.35,0,0,1,116.36,1344.92Zm0-2a4.25,4.25,0,0,0,3.42-1.49,8.1,8.1,0,0,0,0-8.7,4.26,4.26,0,0,0-3.41-1.49,4.22,4.22,0,0,0-3.39,1.49,8.14,8.14,0,0,0,0,8.7A4.22,4.22,0,0,0,116.36,1342.94Z"/>
      <path d="M140.48,1344.92a4.37,4.37,0,0,1-3.39-1.27,5.54,5.54,0,0,1-1.17-3.86v-8.31H133v-1.89h2.94v-4.11l2.43-.69v4.8h4.32v1.89h-4.32v8a4.14,4.14,0,0,0,.61,2.56,2.22,2.22,0,0,0,1.85.77,4.49,4.49,0,0,0,1-.11,5,5,0,0,0,.81-.25v2a4.67,4.67,0,0,1-1,.29A6.6,6.6,0,0,1,140.48,1344.92Z"/>
      <path d="M152.18,1344.92a7.51,7.51,0,0,1-5.58-2.05,7.75,7.75,0,0,1-2-5.71,8.93,8.93,0,0,1,.9-4.12,6.66,6.66,0,0,1,2.52-2.73,7.08,7.08,0,0,1,3.72-1,6.51,6.51,0,0,1,3.48.87,5.63,5.63,0,0,1,2.16,2.47,8.9,8.9,0,0,1,.75,3.79v.9H146.42v-1.53H156.5l-.51.39a5.85,5.85,0,0,0-1.08-3.75,3.86,3.86,0,0,0-3.21-1.35,4.24,4.24,0,0,0-3.51,1.58,6.61,6.61,0,0,0-1.26,4.25v.27a6,6,0,0,0,1.4,4.28,5.16,5.16,0,0,0,3.92,1.46,7.77,7.77,0,0,0,2.53-.41,6.88,6.88,0,0,0,2.27-1.33l.84,1.71a6.66,6.66,0,0,1-2.5,1.49A9.7,9.7,0,0,1,152.18,1344.92Z"/>
      <path d="M166.82,1344.92a11,11,0,0,1-3.36-.49,7.07,7.07,0,0,1-2.58-1.4l.84-1.71a7.73,7.73,0,0,0,2.42,1.29,8.8,8.8,0,0,0,2.72.42,4.71,4.71,0,0,0,2.71-.64,2.07,2.07,0,0,0,.92-1.79,1.78,1.78,0,0,0-.58-1.4,4.3,4.3,0,0,0-1.91-.82l-2.79-.57a5.51,5.51,0,0,1-2.88-1.42,3.56,3.56,0,0,1-1-2.57,4,4,0,0,1,.69-2.33,4.64,4.64,0,0,1,2-1.59,7.58,7.58,0,0,1,3.09-.58,9,9,0,0,1,3,.5,6.14,6.14,0,0,1,2.33,1.42l-.87,1.68a6,6,0,0,0-2.06-1.3,6.73,6.73,0,0,0-2.38-.43,4.21,4.21,0,0,0-2.65.71,2.25,2.25,0,0,0-.89,1.84,1.93,1.93,0,0,0,.56,1.42,3.52,3.52,0,0,0,1.72.83l2.79.57a6.41,6.41,0,0,1,3,1.39,3.32,3.32,0,0,1,1,2.54,3.83,3.83,0,0,1-.75,2.35,4.75,4.75,0,0,1-2.08,1.55A8.34,8.34,0,0,1,166.82,1344.92Z"/>
      <path d="M181.88,1344.92a4.37,4.37,0,0,1-3.39-1.27,5.54,5.54,0,0,1-1.17-3.86v-8.31h-2.94v-1.89h2.94v-4.11l2.43-.69v4.8h4.32v1.89h-4.32v8a4.14,4.14,0,0,0,.61,2.56,2.22,2.22,0,0,0,1.85.77,4.49,4.49,0,0,0,1-.11,5,5,0,0,0,.81-.25v2a4.67,4.67,0,0,1-1,.29A6.6,6.6,0,0,1,181.88,1344.92Z"/>
      <path d="M200.21,1344.92a4.37,4.37,0,0,1-3.39-1.27,5.54,5.54,0,0,1-1.17-3.86v-8.31h-2.94v-1.89h2.94v-4.11l2.43-.69v4.8h4.32v1.89h-4.32v8a4.14,4.14,0,0,0,.61,2.56,2.22,2.22,0,0,0,1.85.77,4.49,4.49,0,0,0,1-.11,5,5,0,0,0,.81-.25v2a4.67,4.67,0,0,1-1,.29A6.6,6.6,0,0,1,200.21,1344.92Z"/>
      <path d="M205.37,1344.65v-22.08h2.43v10.35h-.39a5,5,0,0,1,2.11-2.68,6.42,6.42,0,0,1,3.44-.92,5.16,5.16,0,0,1,4,1.46,6.36,6.36,0,0,1,1.32,4.39v9.48h-2.43v-9.33a4.65,4.65,0,0,0-.83-3.06,3.32,3.32,0,0,0-2.65-1,4.43,4.43,0,0,0-3.35,1.29,4.67,4.67,0,0,0-1.25,3.39v8.67Z"/>
      <path d="M229.63,1344.92a7.51,7.51,0,0,1-5.58-2.05,7.75,7.75,0,0,1-2-5.71,8.93,8.93,0,0,1,.9-4.12,6.66,6.66,0,0,1,2.52-2.73,7.08,7.08,0,0,1,3.72-1,6.51,6.51,0,0,1,3.48.87,5.63,5.63,0,0,1,2.16,2.47,8.9,8.9,0,0,1,.75,3.79v.9H223.87v-1.53H234l-.51.39a5.85,5.85,0,0,0-1.08-3.75,3.86,3.86,0,0,0-3.21-1.35,4.24,4.24,0,0,0-3.51,1.58,6.61,6.61,0,0,0-1.26,4.25v.27a6,6,0,0,0,1.4,4.28,5.16,5.16,0,0,0,3.92,1.46,7.77,7.77,0,0,0,2.53-.41,6.88,6.88,0,0,0,2.27-1.33l.84,1.71a6.66,6.66,0,0,1-2.5,1.49A9.7,9.7,0,0,1,229.63,1344.92Z"/>
      <path d="M252.1,1344.92a11,11,0,0,1-3.36-.49,7.07,7.07,0,0,1-2.58-1.4l.84-1.71a7.73,7.73,0,0,0,2.42,1.29,8.8,8.8,0,0,0,2.72.42,4.71,4.71,0,0,0,2.71-.64,2.07,2.07,0,0,0,.92-1.79,1.78,1.78,0,0,0-.58-1.4,4.3,4.3,0,0,0-1.91-.82l-2.79-.57a5.51,5.51,0,0,1-2.88-1.42,3.56,3.56,0,0,1-1-2.57,4,4,0,0,1,.69-2.33,4.64,4.64,0,0,1,2-1.59,7.58,7.58,0,0,1,3.09-.58,9,9,0,0,1,3,.5,6.14,6.14,0,0,1,2.33,1.42l-.87,1.68a6,6,0,0,0-2.06-1.3,6.73,6.73,0,0,0-2.38-.43,4.21,4.21,0,0,0-2.65.71,2.25,2.25,0,0,0-.89,1.84,1.93,1.93,0,0,0,.56,1.42,3.52,3.52,0,0,0,1.72.83l2.79.57a6.41,6.41,0,0,1,3,1.39,3.32,3.32,0,0,1,1,2.54,3.83,3.83,0,0,1-.75,2.35,4.75,4.75,0,0,1-2.08,1.55A8.34,8.34,0,0,1,252.1,1344.92Z"/>
      <path d="M268.66,1344.92a7.51,7.51,0,0,1-5.58-2.05,7.75,7.75,0,0,1-2-5.71,8.93,8.93,0,0,1,.9-4.12,6.66,6.66,0,0,1,2.52-2.73,7.08,7.08,0,0,1,3.72-1,6.51,6.51,0,0,1,3.48.87,5.63,5.63,0,0,1,2.16,2.47,8.9,8.9,0,0,1,.75,3.79v.9H262.9v-1.53H273l-.51.39a5.85,5.85,0,0,0-1.08-3.75,3.86,3.86,0,0,0-3.21-1.35,4.24,4.24,0,0,0-3.51,1.58,6.61,6.61,0,0,0-1.26,4.25v.27a6,6,0,0,0,1.4,4.28,5.16,5.16,0,0,0,3.92,1.46,7.77,7.77,0,0,0,2.53-.41,6.88,6.88,0,0,0,2.27-1.33l.84,1.71a6.66,6.66,0,0,1-2.5,1.49A9.7,9.7,0,0,1,268.66,1344.92Z"/>
      <path d="M284,1344.92a6.45,6.45,0,0,1-3.51-.94,6.24,6.24,0,0,1-2.32-2.69,11,11,0,0,1,0-8.37,6.15,6.15,0,0,1,2.32-2.67,6.53,6.53,0,0,1,3.51-.93,6,6,0,0,1,3.52,1,4.86,4.86,0,0,1,2,2.8h-.36l.33-3.57h2.34q-.09.87-.17,1.75t-.07,1.72v11.58h-2.43v-3.54h.33a4.78,4.78,0,0,1-2,2.79A6,6,0,0,1,284,1344.92Zm.48-2a4.25,4.25,0,0,0,3.42-1.49,8.14,8.14,0,0,0,0-8.7,4.66,4.66,0,0,0-6.83,0,8.06,8.06,0,0,0,0,8.7A4.26,4.26,0,0,0,284.5,1342.94Z"/>
      <path d="M296.23,1344.65v-11.43q0-.9,0-1.83t-.14-1.8h2.34l.3,3.66-.42,0a5,5,0,0,1,1-2.22,4.8,4.8,0,0,1,1.77-1.3,5.37,5.37,0,0,1,2.13-.44c.3,0,.56,0,.8,0a2.27,2.27,0,0,1,.65.15l0,2.16a4.2,4.2,0,0,0-.83-.19,7.17,7.17,0,0,0-.85,0,4.14,4.14,0,0,0-2.29.63,4.08,4.08,0,0,0-1.47,1.62,4.63,4.63,0,0,0-.5,2.1v8.88Z"/>
      <path d="M313.33,1344.92a7.47,7.47,0,0,1-3.85-1,6.4,6.4,0,0,1-2.52-2.73,9.29,9.29,0,0,1-.89-4.2,9,9,0,0,1,.9-4.18,6.17,6.17,0,0,1,2.54-2.62,7.8,7.8,0,0,1,3.83-.9,8,8,0,0,1,2.8.51,6,6,0,0,1,2.27,1.44l-.87,1.74a6,6,0,0,0-2-1.29,5.66,5.66,0,0,0-2.08-.42,4.57,4.57,0,0,0-3.63,1.47,6.32,6.32,0,0,0-1.29,4.29,6.51,6.51,0,0,0,1.29,4.32,4.49,4.49,0,0,0,3.63,1.53,6,6,0,0,0,2.05-.39,5.69,5.69,0,0,0,2-1.29l.87,1.71a6.1,6.1,0,0,1-2.31,1.47A7.92,7.92,0,0,1,313.33,1344.92Z"/>
      <path d="M321.85,1344.65v-22.08h2.43v10.35h-.39a5,5,0,0,1,2.11-2.68,6.42,6.42,0,0,1,3.44-.92,5.16,5.16,0,0,1,4,1.46,6.36,6.36,0,0,1,1.32,4.39v9.48h-2.43v-9.33a4.65,4.65,0,0,0-.83-3.06,3.32,3.32,0,0,0-2.65-1,4.43,4.43,0,0,0-3.35,1.29,4.67,4.67,0,0,0-1.25,3.39v8.67Z"/>
    </g>
    <rect x="156.4" y="1154.28" width="122.59" height="77.66" transform="translate(907.42 195.52) rotate(45)" fill="#fff" stroke="#000" stroke-miterlimit="10" stroke-width="3"/>
    <line x1="202" y1="1122.5" x2="209" y2="1204.5" fill="none" stroke="#000" stroke-miterlimit="10" stroke-width="3"/>
    <line x1="288" y1="1208.5" x2="207" y2="1202.5" fill="none" stroke="#000" stroke-miterlimit="10" stroke-width="3"/>
    <line x1="147" y1="1177.5" x2="207" y2="1178.5" fill="none" stroke="#000" stroke-miterlimit="10" stroke-width="3"/>
    <line x1="230" y1="1203.5" x2="234" y2="1263.5" fill="none" stroke="#000" stroke-miterlimit="10" stroke-width="3"/>
    <line x1="112" y1="1156.5" x2="155" y2="1158.5" fill="none" stroke="#6156e1" stroke-miterlimit="10" stroke-width="3"/>
    <line x1="112" y1="1194.5" x2="150" y2="1195.5" fill="none" stroke="#6156e1" stroke-miterlimit="10" stroke-width="3"/>
    <line x1="133" y1="1212.5" x2="163" y2="1212.5" fill="none" stroke="#6156e1" stroke-miterlimit="10" stroke-width="3"/>
    <line x1="125" y1="1233.5" x2="180" y2="1233.5" fill="none" stroke="#6156e1" stroke-miterlimit="10" stroke-width="3"/>
  </g>
  <g id="Hjememside">
    <rect x="135" y="20" width="140" height="119" fill="#fff" stroke="#000" stroke-miterlimit="10" stroke-width="3"/>
    <polygon points="97 29 96 29 96 29 97 29 97 29" fill="none" stroke="#000" stroke-miterlimit="10" stroke-width="3"/>
    <line x1="133.5" y1="44.5" x2="274" y2="44.5" fill="none" stroke="#000" stroke-miterlimit="10" stroke-width="3"/>
    <ellipse cx="203.8" cy="89.72" rx="35.8" ry="34.72" fill="none" stroke="#000" stroke-miterlimit="10" stroke-width="3"/>
    <ellipse cx="203.8" cy="90.26" rx="12.48" ry="34.72" fill="none" stroke="#000" stroke-miterlimit="10" stroke-width="3"/>
    <line x1="168.54" y1="79.41" x2="239.07" y2="79.41" fill="none" stroke="#000" stroke-miterlimit="10" stroke-width="3"/>
    <line x1="168.54" y1="100.03" x2="239.07" y2="100.03" fill="none" stroke="#000" stroke-miterlimit="10" stroke-width="3"/>
    <g>
      <line x1="240.15" y1="115.22" x2="251" y2="121.73" fill="none" stroke="#000" stroke-miterlimit="10" stroke-width="10"/>
      <polygon points="237.52 125.27 227.84 107.83 247.78 108.17 237.52 125.27"/>
    </g>
    <rect x="143.5" y="25.99" width="105" height="13.51" rx="3.8" ry="3.8" fill="#fff" stroke="#000" stroke-miterlimit="10" stroke-width="3"/>
    <g>
      <path d="M155,35.89l-2.23-6h1l1.86,5.3h-.31l1.92-5.3h.84l1.88,5.3h-.3l1.87-5.3h1l-2.24,6h-.94l-1.94-5.39h.48l-2,5.39Z"/>
      <path d="M165.53,35.89l-2.23-6h1l1.86,5.3h-.31l1.92-5.3h.84l1.88,5.3h-.3l1.87-5.3h1l-2.24,6h-.94L168,30.5h.48l-2,5.39Z"/>
      <path d="M176.1,35.89l-2.23-6h1l1.86,5.3h-.31l1.92-5.3h.84l1.88,5.3h-.3l1.87-5.3h1l-2.24,6h-.94l-1.94-5.39H179l-2,5.39Z"/>
      <path d="M184.14,35.89V34.66h1.22v1.22Z"/>
    </g>
    <line x1="188.13" y1="28.71" x2="188.13" y2="36.75" fill="none" stroke="#000" stroke-miterlimit="10"/>
  </g>
  <g id="Edderkop">
    <ellipse cx="205" cy="193" rx="17" ry="18" fill="#6156e1"/>
    <ellipse cx="204.5" cy="169.5" rx="10.5" ry="11.5" fill="#6156e1"/>
    <polyline points="179 150 179 165 198 176" fill="none" stroke="#6156e1" stroke-linecap="round" stroke-miterlimit="10" stroke-width="4"/>
    <polyline points="212.5 176.5 229.5 165.5 229.5 150.5" fill="none" stroke="#6156e1" stroke-linecap="round" stroke-miterlimit="10" stroke-width="4"/>
    <polyline points="212.5 179.5 230.5 178.5 236.5 181.5" fill="none" stroke="#6156e1" stroke-linecap="round" stroke-miterlimit="10" stroke-width="4"/>
    <polyline points="213.5 182.5 233.5 192.5 233.5 213.5" fill="none" stroke="#6156e1" stroke-linecap="round" stroke-miterlimit="10" stroke-width="4"/>
    <polyline points="194.5 182.5 175.5 192.5 176.5 214.5" fill="none" stroke="#6156e1" stroke-linecap="round" stroke-miterlimit="10" stroke-width="4"/>
    <polyline points="197.33 179.5 177 178.5 172.5 183.5" fill="none" stroke="#6156e1" stroke-linecap="round" stroke-miterlimit="10" stroke-width="4"/>
  </g>
  <g id="Index">
    <path d="M224.25,468,224,552a19.28,19.28,0,0,0,19-7V457l-50-23-2,3,49,23a9.93,9.93,0,0,1-2.5,5.5A11.23,11.23,0,0,1,224,468" fill="#6156e1"/>
    <path d="M169,450l49,23a9.93,9.93,0,0,1-2.5,5.5c-3.19,3.37-9,4-14.5,1.5l-54-24,.5,83.5,56,26c1.19.37,7.62-.38,12.5-2.5,3.72-1.61,3.73-2.33,4.5-3.5v-89l-51-24Z" fill="#6156e1"/>
    <path d="M246.25,458,246,542a19.28,19.28,0,0,0,19-7V447l-50-23-2,3,49,23a9.93,9.93,0,0,1-2.5,5.5A11.23,11.23,0,0,1,246,458" fill="#6156e1"/>
    <rect x="222" y="470" width="2" height="3" fill="#fff"/>
    <path d="M208.88,525.83l3.73-8.46h.86l3.79,8.46h-1l-1.06-2.41.44.25h-5.17l.48-.25-1,2.41Zm4.15-7.32-1.94,4.56-.29-.22h4.46l-.22.22-2-4.56Z" fill="#fff"/>
    <g>
      <path d="M170.21,406.08l9.33-21.15h2.16l9.48,21.15H188.6l-2.64-6,1.11.63H174.14l1.2-.63-2.58,6Zm10.38-18.3-4.86,11.4-.72-.54h11.16l-.54.54-5-11.4Z"/>
      <path d="M201.71,398.85v-2h8.55v2Z"/>
      <path d="M221.5,406.08v-1.83l12.81-18.15v1H221.5v-2.13h15.18v1.83l-12.84,18.12V404H237v2.13Z"/>
    </g>
    <path d="M232.72,515.83v-8.46h3.38a3.29,3.29,0,0,1,2.08.58,2,2,0,0,1,.73,1.63,1.91,1.91,0,0,1-.47,1.32,2.31,2.31,0,0,1-1.31.7v-.17a2.4,2.4,0,0,1,1.47.64,1.94,1.94,0,0,1,.53,1.43,2.08,2.08,0,0,1-.75,1.73,3.31,3.31,0,0,1-2.12.6Zm1-4.68H236a2.38,2.38,0,0,0,1.48-.38,1.5,1.5,0,0,0,0-2.23,2.4,2.4,0,0,0-1.48-.38h-2.27Zm0,3.88h2.47a2.58,2.58,0,0,0,1.45-.35,1.31,1.31,0,0,0,.53-1.18,1.33,1.33,0,0,0-.53-1.19,2.59,2.59,0,0,0-1.45-.35h-2.47Z" fill="#fff"/>
    <path d="M257.41,504.94a4.16,4.16,0,0,1-2.16-.53,3.46,3.46,0,0,1-1.36-1.5,5.88,5.88,0,0,1,0-4.63,3.48,3.48,0,0,1,1.36-1.49,4.15,4.15,0,0,1,2.16-.53,4.39,4.39,0,0,1,1.61.28,3.57,3.57,0,0,1,1.24.8l-.37.79a4.19,4.19,0,0,0-1.14-.74,3.42,3.42,0,0,0-1.32-.23,2.72,2.72,0,0,0-2.21.9,4.63,4.63,0,0,0,0,5.07,2.71,2.71,0,0,0,2.21.91,3.44,3.44,0,0,0,1.32-.23,4.09,4.09,0,0,0,1.14-.75l.37.8a3.7,3.7,0,0,1-1.24.8A4.33,4.33,0,0,1,257.41,504.94Z" fill="#fff"/>
  </g>
</svg>
