<svg id="logo" xmlns="http://www.w3.org/2000/svg" viewBox="0 0 203 89">
  <title>haku_logo</title>
  <g>
    <g>
      <path d="M29.25,27.39H3.75V48.78a1.74,1.74,0,0,1-3.47,0V2.6a1.74,1.74,0,0,1,3.47,0V24h25.5V2.6a1.74,1.74,0,0,1,3.47,0V48.78a1.74,1.74,0,0,1-3.47,0Z" fill="#ffffff"/>
      <path d="M93,17.47V48.78a1.7,1.7,0,0,1-3.4,0V43.61a16.2,16.2,0,0,1-13,6.87c-9.14,0-16.43-7.86-16.43-17.35s7.3-17.35,16.43-17.35a16.13,16.13,0,0,1,13,6.8v-5.1a1.7,1.7,0,0,1,3.4,0Zm-3.4,15.65c0-7.79-5.88-14-13-14s-13,6.23-13,14,5.95,14,13,14S89.59,40.92,89.59,33.12Z" fill="#ffffff"/>
      <path d="M121.88,2.6a1.74,1.74,0,0,1,3.47,0V36L145.9,15.49a1.7,1.7,0,1,1,2.41,2.41L134.92,31.28l13.46,16.36a1.66,1.66,0,0,1-1.27,2.83,1.47,1.47,0,0,1-1.35-.64L132.44,33.76l-7.08,7.08v7.93a1.74,1.74,0,0,1-3.47,0Z" fill="#ffffff"/>
      <path d="M174.3,17.4a1.7,1.7,0,1,1,3.4,0V36.31a10.7,10.7,0,1,0,21.39,0V17.4a1.72,1.72,0,0,1,1.7-1.7,1.7,1.7,0,0,1,1.77,1.7V36.31a14.13,14.13,0,1,1-28.26,0Z" fill="#ffffff"/>
    </g>
    <g>
      <path d="M10,88.95a16.82,16.82,0,0,1-5.25-.76A12.38,12.38,0,0,1,.69,86l1-2.28a15.74,15.74,0,0,0,2.43,1.5,11,11,0,0,0,2.64.9,15.71,15.71,0,0,0,3.17.29,7.47,7.47,0,0,0,4.56-1.14,3.63,3.63,0,0,0,1.48-3,3,3,0,0,0-1-2.48,8.47,8.47,0,0,0-3.62-1.38l-3.62-.72a10.12,10.12,0,0,1-5-2.24,5.51,5.51,0,0,1-1.64-4.21,6.5,6.5,0,0,1,1.12-3.79,7.31,7.31,0,0,1,3.16-2.52,11.65,11.65,0,0,1,4.73-.9,13.79,13.79,0,0,1,4.73.78,10.08,10.08,0,0,1,3.66,2.26l-1,2.21a10.4,10.4,0,0,0-3.4-2.09,11.87,11.87,0,0,0-4-.64,7.31,7.31,0,0,0-4.47,1.22A3.93,3.93,0,0,0,4,71.09a3.4,3.4,0,0,0,1,2.64,7.2,7.2,0,0,0,3.42,1.43l3.66.72a11.34,11.34,0,0,1,5.18,2.17,5.12,5.12,0,0,1,1.66,4.07,6,6,0,0,1-1.09,3.55,7.07,7.07,0,0,1-3.09,2.41A12,12,0,0,1,10,88.95Z" fill="#bfbfbf"/>
      <path d="M25.92,67.4V64.26h3.45V67.4Zm.35,21.24V71.33h2.8V88.64Z" fill="#bfbfbf"/>
      <path d="M43.66,88.95a5,5,0,0,1-3.9-1.47,6.36,6.36,0,0,1-1.35-4.43V73.5H35V71.33h3.38V66.61l2.8-.79v5.52h5V73.5h-5v9.24a4.76,4.76,0,0,0,.71,2.95,2.56,2.56,0,0,0,2.12.88,5.15,5.15,0,0,0,1.17-.12,5.87,5.87,0,0,0,.93-.29V88.5a5.41,5.41,0,0,1-1.16.33A7.56,7.56,0,0,1,43.66,88.95Z" fill="#bfbfbf"/>
      <path d="M60.15,88.95a8.64,8.64,0,0,1-6.42-2.36A8.91,8.91,0,0,1,51.39,80a10.25,10.25,0,0,1,1-4.74,7.65,7.65,0,0,1,2.9-3.14A8.15,8.15,0,0,1,59.6,71a7.5,7.5,0,0,1,4,1,6.47,6.47,0,0,1,2.48,2.84A10.21,10.21,0,0,1,67,79.23v1H53.53V78.5h11.6l-.59.45a6.72,6.72,0,0,0-1.24-4.31,4.45,4.45,0,0,0-3.69-1.55,4.88,4.88,0,0,0-4,1.81,7.58,7.58,0,0,0-1.45,4.88v.31A6.83,6.83,0,0,0,55.72,85a6,6,0,0,0,4.5,1.67,9,9,0,0,0,2.92-.47,7.92,7.92,0,0,0,2.61-1.53l1,2a7.69,7.69,0,0,1-2.88,1.71A11.18,11.18,0,0,1,60.15,88.95Z" fill="#bfbfbf"/>
      <path d="M92.08,88.95a12.7,12.7,0,0,1-3.87-.57,8.13,8.13,0,0,1-3-1.6l1-2A8.89,8.89,0,0,0,89,86.29a10.16,10.16,0,0,0,3.12.48A5.43,5.43,0,0,0,95.24,86,2.37,2.37,0,0,0,96.29,84a2,2,0,0,0-.67-1.6,5,5,0,0,0-2.19-.95l-3.21-.65a6.34,6.34,0,0,1-3.31-1.64,4.09,4.09,0,0,1-1.1-2.95,4.6,4.6,0,0,1,.79-2.67,5.34,5.34,0,0,1,2.31-1.83A8.72,8.72,0,0,1,92.46,71a10.43,10.43,0,0,1,3.5.57,7.06,7.06,0,0,1,2.67,1.64l-1,1.93a6.85,6.85,0,0,0-2.36-1.5,7.73,7.73,0,0,0-2.74-.5,4.84,4.84,0,0,0-3.05.81,2.58,2.58,0,0,0-1,2.12,2.21,2.21,0,0,0,.64,1.64,4.06,4.06,0,0,0,2,.95l3.21.65a7.37,7.37,0,0,1,3.5,1.6,3.81,3.81,0,0,1,1.16,2.91,4.4,4.4,0,0,1-.86,2.71,5.45,5.45,0,0,1-2.4,1.78A9.58,9.58,0,0,1,92.08,88.95Z" fill="#bfbfbf"/>
      <path d="M114.16,88.95a8.64,8.64,0,0,1-6.42-2.36A8.91,8.91,0,0,1,105.4,80a10.25,10.25,0,0,1,1-4.74,7.65,7.65,0,0,1,2.9-3.14A8.15,8.15,0,0,1,113.61,71a7.5,7.5,0,0,1,4,1,6.47,6.47,0,0,1,2.48,2.84,10.21,10.21,0,0,1,.86,4.36v1H107.54V78.5h11.6l-.59.45a6.72,6.72,0,0,0-1.24-4.31,4.45,4.45,0,0,0-3.69-1.55,4.88,4.88,0,0,0-4,1.81,7.59,7.59,0,0,0-1.45,4.88v.31a6.83,6.83,0,0,0,1.6,4.91,6,6,0,0,0,4.5,1.67,9,9,0,0,0,2.92-.47,7.91,7.91,0,0,0,2.61-1.53l1,2a7.68,7.68,0,0,1-2.88,1.71A11.18,11.18,0,0,1,114.16,88.95Z" fill="#bfbfbf"/>
      <path d="M134.87,88.95a7.42,7.42,0,0,1-4-1.09,7.18,7.18,0,0,1-2.67-3.09,12.66,12.66,0,0,1,0-9.62,7.07,7.07,0,0,1,2.67-3.07,7.52,7.52,0,0,1,4-1.07,6.92,6.92,0,0,1,4.05,1.19,5.6,5.6,0,0,1,2.26,3.22h-.41l.38-4.1h2.69c-.07.67-.13,1.34-.19,2s-.09,1.34-.09,2V88.64h-2.79V84.57h.38a5.49,5.49,0,0,1-2.28,3.21A7,7,0,0,1,134.87,88.95Zm.55-2.28A4.9,4.9,0,0,0,139.36,85a7.5,7.5,0,0,0,1.45-5,7.56,7.56,0,0,0-1.45-5,5.37,5.37,0,0,0-7.85,0A7.5,7.5,0,0,0,130,80a7.44,7.44,0,0,0,1.47,5A4.91,4.91,0,0,0,135.42,86.67Z" fill="#bfbfbf"/>
      <path d="M152,88.64V75.5q0-1-.05-2.1t-.16-2.07h2.69l.34,4.21-.48,0A5.74,5.74,0,0,1,155.51,73a5.53,5.53,0,0,1,2-1.5A6.19,6.19,0,0,1,160,71c.35,0,.65,0,.92,0a2.61,2.61,0,0,1,.74.17l0,2.48a4.89,4.89,0,0,0-.95-.22,8.43,8.43,0,0,0-1-.05,4.75,4.75,0,0,0-2.64.72A4.69,4.69,0,0,0,155.35,76a5.32,5.32,0,0,0-.57,2.41v10.2Z" fill="#bfbfbf"/>
      <path d="M174.66,88.95a8.6,8.6,0,0,1-4.44-1.1,7.36,7.36,0,0,1-2.9-3.14,10.67,10.67,0,0,1-1-4.83,10.28,10.28,0,0,1,1-4.81,7.1,7.1,0,0,1,2.92-3,9,9,0,0,1,4.4-1,9.17,9.17,0,0,1,3.23.59,7,7,0,0,1,2.61,1.65l-1,2a6.9,6.9,0,0,0-2.26-1.48,6.52,6.52,0,0,0-2.4-.48A5.27,5.27,0,0,0,170.66,75a7.26,7.26,0,0,0-1.48,4.93,7.48,7.48,0,0,0,1.48,5,5.17,5.17,0,0,0,4.18,1.76,6.86,6.86,0,0,0,2.36-.45,6.54,6.54,0,0,0,2.29-1.48l1,2a7,7,0,0,1-2.66,1.69A9.14,9.14,0,0,1,174.66,88.95Z" fill="#bfbfbf"/>
      <path d="M187.5,88.64V63.26h2.79V75.16h-.45a5.76,5.76,0,0,1,2.43-3.08,7.39,7.39,0,0,1,4-1.05,5.94,5.94,0,0,1,4.62,1.67,7.3,7.3,0,0,1,1.52,5.05V88.64h-2.79V77.92a5.33,5.33,0,0,0-.95-3.52,3.83,3.83,0,0,0-3.05-1.1,5.1,5.1,0,0,0-3.85,1.48,5.37,5.37,0,0,0-1.43,3.9v10Z" fill="#bfbfbf"/>
    </g>
  </g>
</svg>
